<svg width="15" height="15" viewBox="0 0 15 15" fill="none" xmlns="http://www.w3.org/2000/svg">
<path fill-rule="evenodd" clip-rule="evenodd" d="M4.27497 0.395589C4.14302 0.441694 4.02958 0.542043 3.9698 0.665525C3.92259 0.763063 3.91352 0.831498 3.91352 1.09043V1.39908L3.49148 1.41568C2.90502 1.43879 2.602 1.50915 2.19102 1.71766C1.51653 2.05986 1.03379 2.67315 0.825731 3.45214L0.767578 3.66987V7.73952V11.8092L0.828516 12.0485C0.89446 12.3075 1.07192 12.7072 1.21021 12.9082C1.33128 13.0841 1.62199 13.387 1.80502 13.5278C2.14703 13.791 2.62443 13.9875 3.06037 14.0445C3.21694 14.065 4.62961 14.0714 7.75558 14.0659L12.2268 14.0579L12.4341 13.999C12.9109 13.8633 13.2693 13.67 13.5815 13.38C14.0476 12.9469 14.3176 12.4591 14.4218 11.861C14.4831 11.5096 14.4829 3.9681 14.4216 3.61653C14.3265 3.0712 14.0815 2.60729 13.6723 2.19783C13.1101 1.63525 12.508 1.41083 11.5535 1.40816L11.3085 1.40746L11.2991 1.06167C11.2901 0.727507 11.287 0.712032 11.2094 0.602205C10.9754 0.271063 10.4925 0.299337 10.3067 0.655083C10.2379 0.786812 10.2322 0.821163 10.2322 1.10261V1.40746H7.60832H4.98448V1.10261C4.98448 0.821163 4.97875 0.786812 4.90994 0.655083C4.78873 0.423086 4.51558 0.311465 4.27497 0.395589ZM3.91352 3.05492C3.91352 3.6703 3.92811 3.75659 4.05537 3.893C4.32862 4.18594 4.85138 4.06768 4.95652 3.68912C4.97173 3.63436 4.98424 3.33953 4.98432 3.03398L4.98448 2.47842H7.60832H10.2322L10.2323 3.03398C10.2324 3.33953 10.2449 3.63436 10.2601 3.68912C10.3653 4.06768 10.888 4.18594 11.1613 3.893C11.2887 3.75643 11.3031 3.67059 11.3031 3.05099V2.47055L11.6847 2.48619C11.8984 2.49492 12.1359 2.52056 12.2247 2.5445C12.6502 2.65915 13.0332 2.97821 13.2301 3.38194C13.3473 3.62237 13.3905 3.85223 13.391 4.23882L13.3915 4.5668H7.60832H1.82515L1.8256 4.23882C1.82617 3.85223 1.86933 3.62237 1.98657 3.38194C2.22007 2.90301 2.66205 2.58445 3.20339 2.50487C3.27734 2.494 3.46741 2.48359 3.6257 2.48177L3.91352 2.47842V3.05492ZM13.3915 8.61878C13.3915 11.5143 13.39 11.6058 13.3378 11.8096C13.205 12.3289 12.8056 12.7538 12.2924 12.9219L12.093 12.9872H7.60832H3.12369L2.92422 12.9219C2.68708 12.8443 2.37961 12.6458 2.22596 12.4713C2.06649 12.2901 1.94001 12.0489 1.87862 11.8089C1.82676 11.606 1.82515 11.5108 1.82515 8.61878V5.63776H7.60832H13.3915V8.61878ZM3.71247 7.26736C3.53105 7.3498 3.37833 7.57168 3.37833 7.75291C3.37833 7.93414 3.53105 8.15602 3.71247 8.23846C3.80631 8.28108 3.89818 8.28729 4.44316 8.2878C5.13221 8.28844 5.19093 8.27763 5.35372 8.12009C5.40855 8.06699 5.45725 7.98164 5.48277 7.89387C5.51955 7.76731 5.51955 7.7385 5.48277 7.61194C5.45725 7.52418 5.40855 7.43882 5.35372 7.38573C5.19093 7.22819 5.13221 7.21737 4.44316 7.21802C3.89818 7.21853 3.80631 7.22474 3.71247 7.26736ZM6.83675 7.28696C6.52783 7.44088 6.45099 7.83264 6.67884 8.09214C6.83892 8.27447 6.89962 8.28721 7.60832 8.28721C8.3056 8.28721 8.37058 8.27441 8.52884 8.1059C8.76592 7.85347 8.67037 7.41901 8.34461 7.26819C8.25007 7.22442 8.16351 7.21853 7.60688 7.21802C6.98106 7.21743 6.9752 7.21796 6.83675 7.28696ZM10.0448 7.26011C9.59926 7.45309 9.60285 8.06011 10.0506 8.24686C10.131 8.28041 10.27 8.28828 10.7735 8.2878C11.3185 8.28729 11.4103 8.28108 11.5042 8.23846C11.6856 8.15602 11.8383 7.93414 11.8383 7.75291C11.8383 7.57168 11.6856 7.3498 11.5042 7.26736C11.41 7.22458 11.3197 7.21866 10.7677 7.21906C10.2652 7.21944 10.1196 7.22771 10.0448 7.26011ZM3.67743 10.4463C3.36851 10.6002 3.29167 10.992 3.51951 11.2515C3.67922 11.4334 3.74104 11.4465 4.44316 11.4471C4.94667 11.4476 5.08565 11.4397 5.16606 11.4062C5.52975 11.2545 5.62146 10.7979 5.34161 10.5321C5.19058 10.3887 5.12161 10.3768 4.44171 10.3768C3.82275 10.3768 3.81563 10.3774 3.67743 10.4463ZM6.89881 10.4123C6.70797 10.4869 6.58845 10.6319 6.55086 10.8344C6.51148 11.0465 6.65565 11.2996 6.8718 11.3978C6.96588 11.4405 7.05689 11.4465 7.60832 11.4465C8.32121 11.4465 8.38528 11.4327 8.53944 11.2457C8.76153 10.9763 8.66632 10.5765 8.34461 10.4275C8.24964 10.3836 8.16627 10.3781 7.60832 10.3794C7.19351 10.3804 6.95177 10.3915 6.89881 10.4123ZM10.0448 10.4194C9.59926 10.6124 9.60285 11.2195 10.0506 11.4062C10.131 11.4397 10.27 11.4476 10.7735 11.4471C11.4756 11.4465 11.5374 11.4334 11.6971 11.2515C11.9259 10.9909 11.8461 10.5992 11.5323 10.4428C11.4024 10.3781 11.3869 10.3768 10.7691 10.3778C10.2664 10.3786 10.1195 10.3871 10.0448 10.4194Z" fill="white"/>
</svg>
