<svg width="17" height="12" viewBox="0 0 17 12" fill="none" xmlns="http://www.w3.org/2000/svg">
<path fill-rule="evenodd" clip-rule="evenodd" d="M4.81489 0.135272C3.48139 0.23337 2.27154 0.927332 1.53869 2.0145C1.24151 2.45535 1.0642 2.86239 0.916666 3.44253L0.836406 3.7582L0.826515 7.80929C0.821064 10.0374 0.825657 11.8604 0.836712 11.8604C0.847766 11.8604 1.83579 11.4139 3.03229 10.8683L5.20774 9.87617H8.75161C10.9919 9.87617 12.4122 9.86462 12.6126 9.84478C14.0941 9.69807 15.3747 8.8295 16.0458 7.51616C16.192 7.22999 16.3254 6.84974 16.4107 6.47539C16.4786 6.17773 16.4819 6.10912 16.4814 4.99081C16.481 3.68989 16.464 3.54038 16.2485 2.94082C15.8026 1.69994 14.7711 0.718539 13.4963 0.322269C12.8303 0.11528 13.0261 0.123938 8.87232 0.118046C6.80915 0.115129 4.98331 0.122886 4.81489 0.135272ZM12.7687 1.11108C13.5969 1.25605 14.3634 1.72065 14.8767 2.38876C15.2056 2.81684 15.4518 3.43588 15.5152 3.99371C15.5575 4.36581 15.5575 5.6158 15.5152 5.9879C15.3624 7.33329 14.4131 8.42746 13.0616 8.81591L12.7766 8.89783L8.90395 8.90676L5.03127 8.91569L3.41864 9.65147C2.53168 10.0562 1.79745 10.3873 1.78701 10.3873C1.75253 10.3873 1.7656 4.30304 1.80073 3.99371C1.95681 2.61938 2.96801 1.48727 4.33308 1.15846C4.46335 1.12711 4.61125 1.09581 4.66178 1.08895C4.71231 1.0821 6.5037 1.07494 8.64265 1.07305C11.8267 1.07022 12.5746 1.07711 12.7687 1.11108ZM5.12849 4.32727C4.9289 4.3972 4.73389 4.57136 4.62114 4.78036C4.55246 4.90768 4.54027 4.96748 4.54134 5.17119C4.54238 5.371 4.55635 5.43777 4.62372 5.56572C4.93128 6.14986 5.75101 6.22847 6.15191 5.71234C6.44512 5.33489 6.39499 4.80799 6.03634 4.49809C5.96058 4.43259 5.83488 4.3577 5.75701 4.33166C5.58568 4.27436 5.28555 4.27226 5.12849 4.32727ZM8.32954 4.33404C8.14385 4.39858 7.91446 4.613 7.82881 4.80204C7.77623 4.91812 7.7566 5.01727 7.75574 5.17119C7.75385 5.52165 7.93044 5.7985 8.26839 5.97486C8.37318 6.02954 8.44698 6.04232 8.65796 6.04226C8.88068 6.0422 8.94076 6.03059 9.07412 5.96187C9.50932 5.73759 9.68748 5.21521 9.47453 4.78788C9.37265 4.58345 9.16727 4.39687 8.97233 4.33166C8.79742 4.27316 8.50154 4.27424 8.32954 4.33404ZM11.5464 4.33356C11.3625 4.3975 11.1555 4.58961 11.0566 4.78806C10.8893 5.12387 10.974 5.57946 11.2476 5.81531C11.4554 5.99446 11.5874 6.04232 11.8733 6.04226C12.0957 6.0422 12.1558 6.03062 12.2867 5.96262C12.6145 5.79228 12.7766 5.52411 12.7743 5.15616C12.7732 4.9731 12.7577 4.9017 12.692 4.77667C12.5918 4.58579 12.3746 4.39422 12.1876 4.33166C12.0133 4.27331 11.717 4.27418 11.5464 4.33356Z" fill="black"/>
</svg>
