<?xml version="1.0" standalone="no"?>
<!DOCTYPE svg PUBLIC "-//W3C//DTD SVG 20010904//EN"
 "http://www.w3.org/TR/2001/REC-SVG-20010904/DTD/svg10.dtd">
<svg version="1.0" xmlns="http://www.w3.org/2000/svg"
 width="7518.000000pt" height="4402.000000pt" viewBox="0 0 7518.000000 4402.000000"
 preserveAspectRatio="xMidYMid meet">

<g transform="translate(0.000000,4402.000000) scale(0.100000,-0.100000)"
fill="#000000" stroke="none">
<path d="M9880 39731 l0 -330 608 -4 c566 -3 617 -5 747 -26 373 -59 668 -149
983 -301 277 -135 459 -257 626 -423 227 -225 339 -448 411 -818 64 -328 112
-871 126 -1409 7 -294 4 -16978 -3 -17205 -34 -1010 -173 -1734 -398 -2065
-92 -136 -292 -327 -475 -455 -38 -27 -74 -55 -78 -62 -5 -8 -12 -11 -18 -8
-5 4 -12 -1 -15 -9 -3 -9 -9 -14 -13 -12 -4 3 -8 -5 -8 -16 -2 -20 -1 -20 13
-2 14 18 15 18 9 -3 -3 -12 -1 -24 4 -28 7 -4 8 1 4 12 -6 16 -5 16 10 4 9 -7
14 -18 10 -25 -3 -6 0 -6 8 1 20 19 33 16 18 -5 -12 -15 -12 -16 2 -5 10 8 19
9 27 3 7 -6 10 -7 7 -4 -3 4 3 13 13 21 13 10 13 12 2 10 -8 -2 -12 -2 -7 0 4
3 4 10 0 16 -4 7 1 6 10 -2 13 -10 14 -18 6 -35 -10 -20 -10 -20 5 -2 15 18
21 15 17 -8 -1 -5 4 -4 12 2 8 7 17 9 20 5 4 -3 9 2 13 11 3 9 10 13 15 10 5
-3 6 -11 2 -17 -3 -7 3 -4 14 6 11 9 22 14 26 11 3 -3 11 4 17 16 10 18 14 19
28 8 14 -11 15 -11 9 5 -4 10 -3 16 2 12 5 -3 13 -1 16 5 5 8 12 7 23 -2 10
-7 14 -8 10 -4 -4 5 0 15 10 22 13 9 20 10 31 1 11 -9 13 -9 8 -1 -4 7 1 18
10 25 14 12 16 12 9 -1 -4 -8 0 -6 8 4 9 11 16 17 16 13 0 -4 10 2 22 13 12
11 28 18 35 16 7 -3 15 0 19 6 5 7 2 8 -7 4 -8 -4 -5 -1 5 8 10 8 23 13 29 9
6 -3 7 -1 3 5 -4 7 -3 12 2 12 4 0 18 9 30 20 12 12 22 19 22 16 0 -11 169
150 234 225 141 160 249 411 331 769 13 58 27 121 30 140 3 19 12 71 20 115
17 96 20 116 40 276 9 68 17 138 20 154 2 17 7 71 10 120 4 50 9 97 10 106 2
9 6 72 10 140 4 68 8 135 11 149 16 103 19 1513 19 8925 0 7359 -3 8810 -20
8917 -2 13 -6 79 -10 148 -5 110 -24 334 -41 485 -12 110 -46 335 -65 430 -11
55 -22 111 -25 125 -3 14 -14 59 -25 100 -95 346 -241 586 -505 830 -202 187
-487 360 -824 503 -75 31 -217 84 -245 91 -5 2 -17 6 -25 9 -8 3 -62 20 -120
37 -111 33 -177 49 -260 65 -14 3 -35 7 -46 9 -12 2 -37 7 -55 10 -19 3 -45 8
-59 11 -14 3 -49 7 -78 11 -29 3 -63 8 -75 11 -12 3 -240 7 -507 10 l-485 5
-36 32 c-20 17 -48 52 -63 79 -41 73 -112 166 -152 198 -20 16 -33 29 -28 30
21 1 -34 18 -63 18 l-33 1 0 -329z m2547 -23120 c8 7 13 8 12 3 -4 -23 2 -33
19 -29 12 2 18 -3 18 -17 0 -17 -2 -17 -11 -4 -8 11 -15 12 -22 5 -8 -8 -16
-4 -27 12 -9 13 -16 28 -15 34 0 5 3 4 6 -3 4 -10 8 -10 20 -1z m122 -55 c-2
-2 -13 8 -23 22 l-19 27 24 -22 c12 -12 21 -24 18 -27z m88 29 c0 -8 -4 -12
-9 -9 -5 3 -6 10 -3 15 9 13 12 11 12 -6z m-69 -26 c-3 -8 -7 -3 -11 10 -4 17
-3 21 5 13 5 -5 8 -16 6 -23z m39 9 c-3 -8 -6 -5 -6 6 -1 11 2 17 5 13 3 -3 4
-12 1 -19z"/>
<path d="M12420 16591 c0 -6 4 -13 10 -16 6 -3 7 1 4 9 -7 18 -14 21 -14 7z"/>
<path d="M63626 39808 c-3 -7 -14 -51 -26 -98 -139 -557 -411 -1034 -725
-1270 -65 -49 -93 -76 -92 -90 1 -10 6 -18 12 -17 5 1 9 -3 8 -9 -1 -6 4 -11
12 -11 8 0 12 4 9 9 -3 4 0 8 6 8 6 0 8 5 4 12 -4 6 -3 8 3 5 5 -3 8 -20 7
-38 -2 -22 1 -28 9 -20 8 8 15 6 28 -5 11 -10 19 -12 24 -5 3 6 11 11 16 11 6
0 7 -6 3 -12 -6 -10 -4 -10 7 -2 8 6 27 10 42 9 16 -1 31 4 34 11 3 8 9 11 14
8 5 -3 9 1 9 8 0 9 3 9 10 -2 7 -11 10 -11 10 -2 0 7 5 10 10 7 6 -3 10 -1 10
5 0 6 5 8 10 5 6 -3 10 -1 10 5 0 6 5 8 10 5 6 -3 10 -1 10 6 0 7 3 9 7 6 3
-4 12 1 20 11 10 11 12 12 8 2 -4 -8 3 -4 14 9 12 13 21 19 21 15 0 -5 7 0 15
10 8 11 15 16 15 11 0 -4 11 4 25 19 14 15 25 25 25 22 0 -6 124 118 155 155
169 201 338 514 430 796 18 56 19 46 -23 163 -3 8 -6 20 -7 25 -6 24 -56 124
-65 130 -6 4 -7 11 -4 17 4 7 2 8 -4 4 -7 -4 -12 -2 -12 5 0 16 -53 65 -79 74
-14 4 -23 2 -25 -7z m-823 -1445 c-4 -10 -2 -14 4 -10 5 3 10 -1 10 -9 0 -13
-2 -13 -15 0 -8 8 -11 19 -8 25 11 17 16 13 9 -6z m60 -48 c-3 -9 -8 -14 -10
-11 -3 3 -2 9 2 15 9 16 15 13 8 -4z m53 -7 c4 4 2 -1 -5 -11 -10 -13 -17 -15
-27 -6 -8 6 -11 15 -8 21 4 5 11 5 18 -1 7 -6 17 -7 22 -3z m58 -6 c3 -5 -1
-9 -9 -9 -8 0 -12 4 -9 9 3 4 7 8 9 8 2 0 6 -4 9 -8z"/>
<path d="M17160 39046 c-3 -2 -27 -6 -55 -9 -27 -3 -59 -8 -70 -11 -11 -2 -24
-5 -28 -5 -5 -1 -5 -5 -2 -11 3 -5 0 -7 -7 -5 -31 12 -85 -93 -57 -111 5 -3 7
-10 4 -15 -4 -5 0 -9 7 -9 9 0 9 -3 -2 -10 -9 -6 -10 -10 -3 -10 6 0 10 -9 8
-20 -2 -11 2 -20 8 -20 8 0 8 -3 -1 -9 -11 -7 -11 -9 2 -14 9 -4 13 -13 10
-21 -3 -8 -1 -17 4 -20 6 -3 1283 -7 2838 -7 1556 -1 2921 -5 3034 -10 882
-33 1559 -132 2064 -301 664 -223 1277 -679 1727 -1285 361 -486 720 -1315
1000 -2310 l43 -153 243 0 243 0 -73 73 c-88 88 -161 225 -187 353 -22 107
-187 610 -277 844 -43 113 -95 244 -113 285 -10 22 -27 63 -39 90 -55 126 -70
160 -143 307 -287 585 -592 986 -1058 1392 -243 212 -616 445 -940 587 -154
67 -416 159 -525 184 -5 1 -17 4 -25 8 -16 5 -81 21 -140 34 -41 8 -37 7 -75
16 -16 4 -40 10 -52 12 -13 3 -33 7 -45 10 -13 3 -38 8 -57 11 -18 3 -43 8
-55 10 -11 2 -37 7 -56 10 -19 4 -44 8 -55 11 -11 2 -35 6 -52 8 -18 3 -50 8
-70 11 -21 3 -49 7 -63 9 -14 1 -43 5 -65 8 -22 4 -58 8 -80 11 -22 3 -65 8
-95 12 -30 4 -71 8 -90 10 -19 2 -60 5 -90 8 -62 7 -160 14 -265 21 -38 2
-110 7 -160 10 -49 4 -133 9 -185 12 -112 6 -5874 16 -5880 9z"/>
<path d="M56427 38913 c-1 -1 -74 -4 -162 -8 -88 -3 -171 -8 -185 -10 -14 -2
-68 -7 -120 -9 -52 -3 -95 -6 -95 -7 0 -1 -27 -4 -115 -13 -36 -4 -78 -9 -95
-12 -16 -3 -48 -8 -70 -10 -22 -3 -51 -7 -65 -9 -14 -2 -45 -6 -70 -9 -25 -3
-56 -8 -70 -12 -14 -3 -36 -7 -50 -9 -14 -2 -35 -6 -46 -8 -12 -3 -39 -8 -60
-12 -58 -10 -58 -10 -73 -19 -10 -7 -12 -6 -6 4 5 9 4 11 -4 6 -6 -4 -23 -10
-38 -12 -15 -3 -34 -11 -42 -17 -12 -10 -13 -9 -7 1 7 12 4 12 -15 1 -13 -7
-30 -12 -37 -10 -8 1 -21 -4 -30 -11 -13 -11 -14 -11 -7 2 8 13 6 13 -15 0
-14 -9 -35 -15 -47 -14 -13 1 -23 -2 -23 -5 0 -4 -8 -7 -17 -8 -42 -3 -63 -8
-63 -14 0 -4 -6 -7 -12 -6 -36 1 -49 -4 -42 -15 6 -10 5 -10 -8 -1 -8 7 -18
10 -22 6 -3 -4 -16 -8 -28 -10 -12 -2 -28 -9 -37 -16 -12 -10 -13 -9 -7 1 4 7
-9 3 -29 -8 -20 -11 -34 -16 -30 -10 3 6 0 7 -9 4 -9 -3 -13 -10 -10 -15 3 -5
-2 -6 -11 -3 -8 4 -23 0 -32 -7 -14 -12 -16 -12 -8 1 5 9 -1 7 -15 -5 -14 -12
-20 -14 -15 -5 5 9 -1 7 -15 -5 -14 -12 -20 -14 -15 -5 5 9 -1 7 -15 -5 -14
-12 -20 -14 -15 -5 5 9 -1 7 -15 -5 -13 -11 -20 -14 -16 -8 5 9 2 11 -8 7 -9
-3 -13 -10 -10 -15 3 -5 -2 -6 -11 -2 -10 3 -21 0 -26 -8 -7 -12 -9 -12 -9 0
0 11 -4 10 -16 -5 -8 -10 -12 -12 -8 -4 5 10 -1 8 -16 -5 -15 -13 -21 -15 -16
-5 4 8 0 6 -8 -4 -10 -12 -16 -15 -16 -7 0 9 -6 6 -17 -6 -10 -10 -14 -13 -9
-6 14 21 -1 15 -25 -9 -12 -13 -19 -17 -15 -10 9 15 -20 16 -30 0 -5 -7 -3 -8
6 -3 8 5 11 4 7 -2 -4 -6 -18 -8 -32 -5 -23 4 -31 -4 -26 -31 1 -5 -3 -6 -9
-2 -6 3 -8 10 -5 15 3 4 -4 6 -15 3 -11 -3 -20 -10 -20 -15 0 -5 -3 -7 -7 -5
-5 3 -19 1 -32 -4 -16 -7 -21 -14 -17 -27 6 -16 5 -16 -8 1 -13 16 -14 16 -19
-5 -5 -18 -9 -20 -19 -10 -10 10 -16 7 -33 -11 -11 -12 -17 -18 -12 -13 14 19
7 27 -9 12 -8 -9 -19 -14 -24 -11 -4 3 -21 -8 -36 -24 -21 -23 -32 -28 -45
-21 -20 11 -45 -12 -33 -31 4 -7 3 -9 -4 -5 -5 3 -13 0 -16 -6 -3 -7 -4 -2 -1
12 3 14 2 19 -1 12 -3 -6 -9 -10 -14 -7 -10 6 -8 -14 4 -35 4 -8 -2 -4 -13 9
-12 13 -21 18 -21 12 0 -7 -5 -9 -10 -6 -6 4 -10 3 -9 -2 3 -20 -2 -27 -11
-13 -7 11 -10 11 -10 2 0 -7 -4 -10 -10 -7 -6 3 -7 -1 -3 -10 5 -13 7 -14 14
-3 5 8 9 9 9 2 0 -6 -8 -18 -17 -25 -9 -8 -14 -9 -10 -3 4 7 0 17 -8 24 -13
11 -14 10 -9 -4 4 -10 -1 -24 -10 -35 -9 -10 -13 -22 -9 -26 5 -5 0 -3 -9 4
-10 7 -18 19 -18 25 0 6 4 5 9 -3 6 -9 11 -10 15 -2 4 6 2 11 -4 11 -6 0 -8 5
-4 11 4 8 9 7 15 -2 6 -10 9 -10 9 -2 0 22 -17 23 -36 2 -16 -18 -16 -23 -4
-42 12 -19 11 -21 -2 -10 -12 11 -18 10 -32 -5 -9 -10 -13 -23 -9 -27 5 -5 -1
-3 -11 5 -18 14 -19 13 -13 -2 3 -10 2 -20 -2 -22 -7 -5 -8 10 -2 49 1 6 5 4
10 -4 6 -9 11 -10 15 -2 4 6 2 11 -5 11 -8 0 -8 5 2 18 13 16 13 16 -7 -1 -11
-9 -24 -14 -28 -10 -4 4 -4 0 -1 -9 5 -13 2 -16 -14 -13 -15 3 -18 0 -14 -13
6 -15 5 -15 -11 -3 -15 12 -17 12 -14 0 2 -8 -1 -13 -7 -12 -5 1 -11 -10 -12
-23 -4 -48 -7 -52 -25 -49 -18 4 -21 -2 -21 -37 0 -10 -3 -15 -7 -13 -4 3 -7
-9 -6 -25 1 -32 6 -35 34 -21 9 5 30 14 45 20 15 6 26 15 23 20 -3 4 6 6 21 3
19 -4 24 -2 18 8 -5 8 -4 11 3 6 6 -3 57 12 114 35 934 374 1943 555 3038 542
1790 -20 3310 -539 4605 -1572 1004 -801 1819 -1986 2482 -3606 137 -336 353
-948 476 -1350 l33 -110 193 -3 193 -2 -38 43 c-95 109 -160 278 -219 575 -48
241 -72 321 -193 642 -273 721 -568 1348 -920 1950 -81 139 -152 254 -193 312
-10 15 -19 31 -19 37 0 5 -3 11 -7 13 -5 2 -38 48 -74 103 -37 55 -105 154
-152 220 -48 66 -92 128 -99 138 -7 11 -21 29 -30 40 -24 30 -26 33 -80 102
-26 33 -53 67 -60 75 -7 9 -33 40 -58 70 -244 300 -571 635 -855 875 -66 55
-138 114 -160 131 -22 16 -47 35 -55 43 -59 57 -562 408 -676 472 -16 9 -69
41 -119 71 -204 124 -568 309 -800 408 -55 23 -116 49 -135 57 -36 15 -70 30
-105 44 -55 22 -242 91 -255 94 -8 1 -62 19 -120 39 -108 38 -368 114 -445
131 -5 2 -48 12 -95 24 -114 30 -161 41 -188 46 -13 2 -31 6 -40 9 -9 3 -30 8
-47 10 -16 3 -45 10 -63 15 -18 5 -36 10 -40 10 -6 0 -90 14 -102 16 -3 1 -19
4 -35 8 -17 4 -48 10 -70 13 -22 2 -52 7 -67 9 -33 6 -64 10 -133 20 -27 3
-61 8 -75 11 -59 10 -126 19 -235 29 -33 3 -78 8 -100 10 -22 3 -74 7 -115 10
-41 3 -104 8 -140 10 -175 13 -795 27 -803 18z m-2371 -485 c4 -7 4 -10 -1 -6
-4 4 -14 3 -21 -3 -8 -7 -14 -6 -20 2 -4 7 -3 9 4 5 6 -3 13 -2 17 4 8 13 12
13 21 -2z m-171 -68 c4 -6 1 -9 -7 -8 -7 2 -12 -3 -10 -10 1 -8 -2 -11 -8 -7
-8 5 -7 11 1 21 14 17 16 17 24 4z m-91 -51 c-3 -5 -10 -7 -15 -3 -5 3 -7 10
-3 15 3 5 10 7 15 3 5 -3 7 -10 3 -15z m-94 -49 c-6 -11 -13 -20 -16 -20 -2 0
0 9 6 20 6 11 13 20 16 20 2 0 0 -9 -6 -20z m-213 -120 c-2 -11 -9 -26 -17
-33 -9 -8 -11 -8 -6 0 3 6 2 14 -4 18 -5 3 -11 -3 -11 -14 -2 -33 -4 -39 -11
-46 -4 -4 -5 5 -2 21 7 44 13 56 24 49 6 -3 13 1 16 9 9 22 14 20 11 -4z m-67
-95 c0 -2 -6 -8 -13 -14 -10 -8 -14 -7 -14 2 0 8 6 14 14 14 7 0 13 -1 13 -2z"/>
<path d="M53820 38351 c0 -7 -5 -9 -12 -5 -7 5 -8 3 -3 -5 5 -9 10 -10 18 -2
6 6 8 14 4 18 -4 3 -7 1 -7 -6z"/>
<path d="M50413 38268 c-11 -19 -13 -39 -1 -32 5 3 7 9 4 12 -3 3 -1 11 5 19
6 7 9 13 6 13 -3 0 -9 -6 -14 -12z"/>
<path d="M50355 38240 c-4 -6 -10 -8 -14 -6 -4 3 -13 0 -21 -6 -12 -8 -11 -9
3 -4 12 4 17 2 14 -6 -2 -7 -16 -12 -30 -12 -16 1 -24 -3 -20 -9 4 -6 0 -8
-11 -4 -9 4 -14 3 -11 -2 4 -8 -21 -22 -45 -26 -3 0 -29 -14 -58 -30 -38 -22
-52 -35 -48 -47 2 -10 -3 -23 -13 -30 -14 -11 -14 -11 -3 4 9 11 10 18 2 23
-15 9 -32 -5 -25 -22 4 -13 3 -14 -10 -3 -18 15 -20 0 -2 -20 6 -8 2 -6 -9 3
-12 10 -24 15 -25 10 -2 -4 -20 -17 -39 -27 -69 -37 -403 -262 -545 -366 -361
-265 -686 -527 -930 -750 -27 -25 -81 -74 -121 -110 -102 -94 -502 -496 -621
-625 -511 -556 -1010 -1231 -1426 -1930 -284 -477 -605 -1120 -834 -1669 -559
-1341 -899 -2854 -982 -4361 -20 -363 -22 -424 -22 -861 0 -453 10 -728 36
-1094 153 -2079 743 -3936 1783 -5610 363 -584 839 -1212 1307 -1725 138 -152
482 -497 640 -642 1006 -926 2202 -1632 3515 -2075 883 -297 1847 -488 2840
-562 113 -9 234 -18 270 -21 329 -24 1190 -27 1580 -4 1077 63 2030 241 2919
544 202 69 475 172 542 205 24 11 49 20 56 20 7 0 13 4 13 8 0 5 6 9 13 9 6 0
30 8 52 18 22 10 43 17 48 17 4 -1 7 3 7 8 0 5 3 10 8 9 15 -2 52 14 52 22 0
5 0 11 0 14 0 3 -3 5 -7 4 -5 -1 -7 -5 -5 -11 1 -5 -2 -7 -8 -3 -8 5 -7 11 1
21 9 11 15 11 25 3 9 -7 14 -7 14 -1 0 5 -6 15 -13 21 -11 8 -19 5 -35 -12
-11 -12 -20 -25 -19 -29 1 -3 -1 -9 -5 -13 -3 -4 -5 0 -4 9 1 8 5 18 8 22 4 3
4 18 2 32 -3 21 -2 23 6 12 9 -13 10 -13 10 0 0 13 1 13 10 0 9 -13 10 -13 10
0 0 12 2 13 9 1 7 -10 9 -11 13 -1 2 8 11 14 20 16 12 1 15 -3 11 -14 -5 -14
-4 -14 8 1 13 16 14 15 14 -12 1 -16 -3 -27 -9 -24 -5 3 -6 1 -2 -6 13 -20 28
0 22 28 l-6 26 15 -25 c8 -14 14 -20 15 -14 0 6 10 11 23 10 18 -1 22 5 23 29
1 17 3 30 4 30 1 0 3 8 5 18 2 9 -1 15 -6 11 -5 -3 -7 -9 -4 -14 3 -5 1 -11
-5 -15 -5 -3 -10 1 -10 9 0 8 -4 17 -9 20 -5 4 -7 -2 -4 -13 3 -10 -1 -22 -8
-27 -9 -5 -11 -2 -6 12 7 18 6 18 -6 2 -8 -10 -17 -15 -21 -11 -3 3 1 14 10
24 12 14 13 18 2 25 -7 4 -10 4 -6 -1 4 -4 3 -14 -3 -22 -10 -11 -15 -11 -28
-1 -14 11 -14 11 -3 -4 9 -11 10 -18 2 -23 -5 -3 -10 0 -10 7 0 10 -2 10 -9
-1 -7 -11 -9 -11 -14 0 -4 11 -6 11 -6 1 -1 -7 -6 -10 -11 -7 -8 5 -7 12 2 23
10 15 10 15 -2 4 -8 -7 -15 -17 -15 -23 0 -5 -4 -9 -10 -8 -5 1 -9 4 -8 8 1 4
-5 8 -12 8 -11 0 -12 -4 -4 -13 6 -8 6 -14 0 -18 -5 -3 -12 0 -14 6 -4 10 -6
10 -6 0 -1 -7 -6 -10 -11 -7 -8 5 -7 12 2 23 7 10 1 7 -13 -5 -17 -16 -29 -20
-37 -13 -9 7 -9 7 -2 -2 17 -20 11 -54 -12 -74 -23 -19 -23 -19 -5 2 21 25 22
48 3 63 -10 8 -16 9 -21 1 -3 -6 -10 -8 -15 -5 -4 3 -6 -4 -3 -15 3 -11 0 -26
-6 -33 -6 -8 -7 -18 -3 -22 4 -5 2 -5 -4 -2 -7 4 -11 23 -10 42 2 43 -12 31
-16 -13 -1 -19 -7 -36 -12 -39 -5 -3 -6 -1 -2 5 3 6 2 13 -4 17 -5 3 -10 14
-9 23 0 14 2 13 9 -3 8 -17 8 -17 7 7 -1 19 -5 24 -13 18 -6 -6 -14 -7 -17 -4
-4 4 -2 -7 3 -25 5 -19 5 -29 -1 -26 -5 4 -9 14 -9 23 0 14 -2 15 -10 2 -6 -9
-5 -20 3 -30 6 -8 2 -6 -11 4 -23 20 -31 10 -9 -14 10 -12 9 -12 -6 -1 -11 9
-16 22 -12 35 3 12 2 15 -1 9 -3 -7 -10 -13 -15 -13 -6 0 -8 4 -5 8 3 5 -1 9
-9 9 -13 0 -13 -3 -2 -16 28 -33 29 -45 2 -18 -19 19 -31 24 -40 17 -6 -5 -15
-6 -19 -2 -4 4 -7 2 -5 -3 1 -6 -1 -18 -5 -27 -6 -14 -11 -15 -21 -5 -7 7 -10
17 -7 22 3 6 -1 4 -10 -2 -8 -7 -19 -9 -24 -5 -5 4 -5 3 -1 -3 5 -6 14 -10 20
-10 5 0 12 -7 14 -15 4 -13 3 -13 -6 0 -10 14 -16 7 -12 -13 1 -5 -3 -6 -9 -2
-6 3 -8 9 -6 13 2 4 -2 13 -10 20 -9 8 -14 9 -14 2 0 -6 -4 -8 -10 -5 -6 3 -7
-1 -3 -10 5 -13 7 -14 14 -3 6 9 9 9 9 1 0 -19 -17 -24 -29 -9 -10 12 -37 15
-48 6 -2 -2 -7 -4 -13 -5 -5 -1 -12 -4 -15 -5 -3 -1 -14 -4 -25 -5 -11 -1 -22
-4 -25 -5 -3 -1 -10 -3 -17 -4 -6 0 -13 -8 -15 -16 -4 -13 -3 -13 7 0 10 13
11 13 7 0 -2 -8 -9 -16 -15 -16 -7 -1 -14 -3 -17 -4 -3 -1 -8 -3 -12 -4 -5 -1
-13 -5 -20 -9 -6 -4 -15 -2 -19 4 -5 8 -3 9 6 4 8 -5 11 -4 7 2 -4 6 3 10 15
9 12 0 23 6 25 14 3 9 1 11 -4 5 -4 -6 -15 -10 -23 -10 -8 1 -21 -3 -27 -8 -7
-5 -13 -6 -13 -2 0 4 -7 2 -15 -5 -8 -7 -15 -9 -15 -5 0 4 -6 3 -12 -2 -7 -6
-21 -9 -31 -8 -9 2 -22 -6 -28 -17 -9 -16 -13 -17 -27 -6 -14 11 -15 10 -9 -7
7 -20 7 -20 -8 -1 -8 11 -15 14 -15 7 0 -7 -5 -9 -12 -5 -8 5 -9 1 -5 -12 7
-18 7 -18 -8 0 -15 20 -15 20 -15 0 0 -16 -2 -17 -10 -4 -9 13 -10 13 -10 0 0
-13 -1 -13 -10 0 -9 13 -10 13 -11 0 -1 -8 -1 -19 0 -23 1 -5 -3 -6 -9 -2 -6
3 -8 10 -5 14 2 5 -7 6 -20 3 -15 -2 -22 -9 -18 -16 4 -7 1 -6 -9 1 -8 7 -18
10 -22 6 -3 -4 -12 -8 -19 -9 -46 -10 -61 -15 -75 -26 -12 -10 -14 -10 -8 -1
5 9 2 11 -8 7 -9 -3 -13 -11 -9 -18 4 -6 -1 -5 -10 3 -9 7 -17 9 -17 4 0 -5
-10 -9 -22 -10 -39 -1 -79 -11 -96 -25 -12 -9 -14 -10 -8 -1 5 9 2 11 -8 7 -9
-3 -13 -11 -9 -18 5 -7 2 -7 -8 1 -12 10 -21 9 -42 -2 -15 -8 -25 -10 -22 -5
4 6 -3 6 -19 0 -14 -5 -26 -7 -26 -4 0 4 -12 -1 -26 -11 -15 -9 -23 -12 -20
-6 5 8 0 8 -18 1 -14 -5 -26 -7 -26 -4 0 4 -12 -1 -26 -11 -15 -9 -23 -12 -20
-6 5 8 0 8 -17 2 -14 -6 -28 -7 -31 -4 -3 4 -6 2 -6 -4 0 -6 -11 -9 -25 -8
-14 2 -25 -1 -25 -6 0 -6 -4 -7 -10 -4 -5 3 -15 3 -22 -1 -6 -4 -28 -9 -47
-10 -20 -1 -47 -5 -61 -8 -28 -6 -72 -14 -110 -22 -14 -2 -43 -7 -65 -10 -22
-3 -47 -8 -55 -11 -14 -6 -39 -9 -88 -12 -15 -1 -21 -5 -16 -14 5 -9 4 -9 -6
0 -8 7 -21 8 -34 3 -11 -4 -24 -8 -28 -9 -5 0 -11 -1 -15 -2 -5 -1 -19 0 -32
1 -17 1 -21 -2 -15 -12 6 -10 5 -11 -8 -1 -8 7 -17 10 -20 8 -3 -3 -27 -8 -54
-11 -27 -3 -60 -7 -74 -9 -22 -3 -69 -10 -150 -20 -14 -2 -50 -6 -80 -9 -30
-4 -71 -8 -90 -11 -20 -3 -60 -8 -90 -10 -30 -3 -73 -7 -95 -10 -22 -2 -71 -6
-110 -10 -38 -3 -88 -8 -110 -10 -22 -2 -85 -6 -140 -10 -55 -4 -120 -8 -145
-11 -185 -17 -1068 -24 -1390 -11 -278 11 -582 30 -695 42 -43 5 -118 12 -228
21 -37 3 -78 7 -90 10 -12 2 -47 7 -77 10 -103 10 -216 24 -250 30 -14 2 -43
7 -65 10 -52 7 -94 13 -125 18 -14 2 -46 7 -71 10 -47 7 -79 12 -126 21 -16 3
-44 8 -63 11 -48 6 -77 12 -98 18 -9 3 -33 7 -52 10 -34 6 -58 10 -110 21 -14
3 -41 8 -60 11 -19 3 -43 7 -52 10 -10 3 -28 7 -40 10 -60 11 -230 50 -300 68
-31 9 -69 18 -85 21 -15 3 -39 8 -52 11 -13 3 -32 9 -43 15 -10 5 -18 8 -18 5
0 -3 -15 0 -32 5 -18 6 -89 26 -158 45 -69 19 -136 39 -150 44 -14 6 -34 12
-45 14 -11 2 -57 16 -102 31 -46 14 -84 25 -85 24 -2 -1 -13 3 -26 10 -13 7
-31 14 -40 16 -62 14 -465 162 -642 237 -52 22 -108 46 -125 53 -232 97 -682
320 -930 461 -152 86 -502 300 -515 314 -3 3 -59 41 -125 85 -66 43 -122 81
-125 85 -3 3 -27 21 -55 40 -47 32 -223 161 -255 187 -8 7 -76 60 -150 119
-110 87 -309 252 -330 274 -3 3 -41 37 -85 75 -229 201 -577 548 -800 799 -38
44 -75 84 -80 90 -6 6 -41 47 -78 91 -38 44 -78 91 -91 105 -18 21 -261 324
-284 355 -4 6 -30 39 -58 75 -168 214 -539 755 -654 955 -10 17 -56 93 -102
170 -528 875 -971 1949 -1238 3000 -73 288 -160 695 -195 910 -3 17 -7 41 -10
55 -6 32 -13 75 -20 125 -3 22 -10 65 -15 95 -10 63 -14 91 -30 210 -6 47 -13
96 -15 110 -2 14 -7 57 -11 95 -3 39 -8 72 -9 75 -2 3 -6 43 -10 90 -4 47 -8
92 -10 100 -2 9 -6 60 -10 115 -4 55 -9 107 -10 115 -2 9 -6 67 -10 130 -4 63
-8 131 -10 150 -2 19 -6 109 -10 200 -4 91 -9 181 -11 200 -5 45 -5 1014 0
1060 2 19 7 116 11 214 4 99 8 189 10 200 2 12 6 73 10 136 3 63 8 129 10 145
2 17 7 62 10 100 16 203 71 663 100 840 11 66 15 92 20 130 4 22 8 47 10 55 2
8 7 38 11 65 3 28 8 52 9 55 2 3 6 26 10 50 4 25 15 90 26 145 11 55 23 111
25 125 3 14 7 32 9 40 2 8 7 31 10 50 3 19 10 51 15 70 5 19 12 50 15 68 5 29
14 68 51 227 3 11 7 30 10 43 13 65 91 353 148 552 136 471 351 1075 514 1440
8 19 16 37 17 40 1 3 9 22 18 44 9 21 17 40 17 42 0 4 53 118 116 253 30 62
54 115 54 118 0 5 216 436 250 498 15 28 46 86 70 130 90 168 214 383 376 649
112 185 463 702 488 718 6 5 7 8 1 8 -7 0 -6 3 0 8 6 4 48 59 95 122 47 63 89
120 95 127 16 19 27 33 80 103 54 70 90 113 118 142 9 10 14 18 11 18 -4 0 7
14 24 30 18 17 29 30 25 30 -3 0 8 14 25 30 18 17 30 30 27 30 -6 0 30 43 73
87 18 18 30 33 27 33 -3 0 3 8 13 18 9 11 20 17 25 15 4 -3 6 0 5 5 -4 13 68
93 76 84 4 -4 6 -1 4 5 -3 13 77 106 183 214 31 32 54 60 51 63 -3 3 3 6 13 6
10 0 16 3 12 6 -7 7 123 140 135 136 4 -1 7 1 6 5 -2 5 69 80 157 168 87 88
155 154 150 146 -5 -10 -4 -12 3 -7 7 4 12 14 12 22 0 8 5 12 10 9 6 -3 10 1
10 10 0 8 11 20 25 25 14 5 25 14 25 20 0 6 5 8 12 4 6 -4 9 -3 5 2 -3 5 16
30 41 54 26 25 38 34 27 20 -19 -24 -18 -24 7 1 14 15 29 25 33 21 3 -4 3 2
-1 11 -4 10 -2 17 3 15 6 -2 28 15 49 38 22 22 28 26 14 10 l-25 -31 33 29
c17 17 32 37 33 45 0 13 2 13 6 2 4 -10 10 -5 20 15 7 16 11 21 8 12 -7 -27 1
-21 24 17 11 19 27 35 36 35 10 0 13 5 9 13 -6 9 -4 9 8 -1 14 -12 16 -10 11
10 -4 18 -3 20 6 8 9 -13 11 -13 11 1 0 9 10 24 23 35 22 19 22 19 5 -2 -10
-11 -18 -25 -18 -30 0 -4 7 2 16 14 8 12 19 20 24 17 4 -3 6 5 4 17 -2 13 -2
17 2 11 4 -10 9 -10 20 1 8 8 14 19 14 25 0 5 5 13 12 17 6 4 8 3 5 -3 -3 -5
0 -10 7 -10 8 0 12 8 9 21 -4 17 -3 18 6 6 9 -12 11 -11 12 10 0 23 1 23 9 5
8 -18 9 -18 9 -2 1 10 5 16 10 13 4 -3 16 3 26 14 10 11 22 17 27 14 4 -3 8
-2 7 3 -3 19 2 34 10 29 14 -9 34 22 27 41 -5 15 -3 15 10 -2 16 -20 16 -20
11 2 -6 25 7 40 19 22 5 -8 3 -9 -6 -4 -9 5 -11 4 -6 -4 6 -9 11 -9 22 0 10 8
11 15 4 24 -8 10 -8 15 1 21 7 4 9 3 6 -3 -4 -6 -1 -13 7 -16 18 -7 50 28 43
47 -3 8 0 20 8 26 11 10 13 8 10 -7 -2 -12 2 -20 10 -20 7 0 11 6 8 14 -7 17
15 43 35 43 8 0 12 -3 8 -7 -4 -5 -13 -8 -18 -8 -6 0 -13 -7 -15 -15 -4 -13
-3 -13 6 0 6 8 11 11 11 6 0 -6 16 5 35 24 20 19 33 40 31 46 -7 18 20 38 30
23 5 -8 3 -9 -6 -4 -9 6 -11 4 -5 -5 6 -9 4 -11 -5 -5 -9 6 -11 4 -6 -4 6 -9
12 -9 25 3 10 9 20 14 22 11 3 -2 4 9 3 25 -1 16 4 34 11 40 10 8 13 7 11 -4
-1 -9 -5 -19 -9 -22 -4 -4 -7 -12 -7 -18 0 -6 5 -3 11 7 6 9 14 15 19 12 4 -3
6 5 3 17 -5 23 -5 23 10 3 15 -19 15 -19 10 7 -3 14 0 29 7 33 8 5 8 11 -2 23
-11 13 -11 14 2 7 24 -15 42 -15 36 0 -3 8 -1 17 3 19 5 3 8 -5 7 -17 -1 -12
-8 -21 -15 -19 -7 1 -10 -2 -5 -9 5 -8 3 -9 -7 -4 -12 8 -12 6 0 -8 16 -20 22
-22 19 -4 -2 6 4 11 12 9 8 -2 12 -1 8 3 -4 4 -3 17 2 30 6 15 4 27 -3 36 -10
11 -9 11 4 1 19 -14 33 -4 18 14 -7 8 -6 14 2 20 7 4 9 3 5 -4 -3 -6 -2 -13 4
-17 5 -3 10 -1 10 6 0 7 3 9 6 6 4 -4 2 -13 -4 -20 -7 -8 -8 -17 -4 -21 4 -4
0 -6 -8 -4 -9 2 -15 -5 -16 -19 -1 -12 2 -20 7 -17 4 2 5 12 2 21 -4 10 -2 14
4 10 17 -11 56 39 51 65 -3 19 0 24 16 26 13 1 16 -2 9 -6 -7 -4 -11 -17 -10
-29 1 -17 4 -19 14 -11 16 13 17 22 2 12 -7 -4 -10 -1 -7 7 3 8 14 13 26 13
15 -1 19 3 14 15 -5 14 -4 14 12 2 9 -8 16 -10 15 -5 -1 5 -1 17 0 28 1 16 3
17 18 5 9 -8 14 -9 11 -4 -4 6 0 19 8 30 8 10 14 15 14 10 0 -4 9 0 20 10 11
10 17 21 15 25 -3 4 2 13 10 20 13 11 15 10 12 -6 -1 -11 -7 -26 -12 -34 -8
-13 -6 -13 8 -2 9 8 16 17 15 20 -2 20 3 32 12 27 6 -4 9 -1 8 7 -2 7 3 12 10
10 8 -1 11 1 8 6 -3 5 1 18 9 28 14 18 15 17 11 -9 -3 -17 -1 -25 5 -21 6 3 8
8 5 11 -3 3 -1 14 5 25 9 16 13 17 27 6 15 -11 16 -11 4 4 -8 10 -9 18 -3 22
6 4 8 14 5 24 -4 11 2 8 16 -8 13 -15 18 -17 12 -7 -11 22 -4 69 9 61 5 -3 7
-9 4 -14 -3 -4 3 -7 12 -6 9 2 19 9 21 17 3 12 2 12 -6 0 -5 -7 -12 -9 -15 -4
-3 5 4 20 15 33 12 15 18 18 15 8 -3 -9 2 -22 11 -29 14 -11 15 -11 5 1 -13
14 1 55 15 46 5 -3 9 4 9 15 2 18 0 18 -17 -3 -11 -13 -19 -18 -20 -12 0 5 5
15 12 22 7 7 9 12 6 12 -4 0 -10 -5 -13 -10z m-37 -52 c-3 -7 -11 -13 -18 -13
-8 0 -17 -10 -20 -23 -3 -13 -9 -23 -15 -23 -5 1 -10 -5 -10 -13 0 -18 -25
-47 -35 -41 -4 3 -20 -11 -35 -30 -14 -20 -30 -33 -35 -30 -5 3 -11 1 -15 -5
-4 -6 -11 -7 -17 -4 -7 5 -9 0 -6 -14 6 -21 -13 -48 -25 -36 -3 3 -10 -4 -17
-15 -6 -12 -15 -19 -21 -16 -5 4 -13 -4 -18 -17 -9 -21 -10 -21 -11 -3 -1 16
-4 14 -14 -10 -10 -25 -13 -27 -19 -12 -4 10 -11 15 -17 12 -16 -10 -11 1 7
16 10 8 14 9 10 2 -4 -6 -3 -14 2 -17 5 -3 12 4 16 17 4 12 8 25 10 30 6 18 7
22 7 28 -1 3 6 6 14 6 12 0 12 -3 -1 -17 -8 -9 -12 -19 -9 -23 4 -3 15 4 24
16 17 21 17 23 2 42 -17 20 -17 20 6 1 21 -18 31 -11 15 10 -5 5 0 1 10 -9 14
-16 17 -16 17 -4 0 9 -4 19 -10 22 -5 3 -10 12 -10 18 0 7 5 4 11 -6 10 -17
29 -15 29 4 0 6 -5 7 -12 3 -6 -4 -3 4 8 18 10 14 21 24 23 22 3 -2 0 -9 -6
-15 -6 -6 -9 -18 -6 -26 4 -11 9 -7 18 13 13 31 2 59 -18 47 -6 -4 -7 -1 -3 6
6 9 13 8 27 -5 20 -18 27 -6 8 13 -8 8 -7 13 2 18 7 5 10 4 5 -3 -3 -6 -2 -13
4 -17 6 -3 10 4 11 17 1 18 3 16 10 -9 13 -44 19 -42 16 4 -2 32 1 38 18 37
11 0 24 5 28 11 5 6 6 3 3 -8 -3 -11 -2 -16 4 -12 6 3 10 11 10 17 0 12 29 37
43 38 5 0 7 -6 5 -12z m-392 -374 c-9 -8 -11 -9 -6 -2 6 7 11 21 11 33 1 18 2
18 6 1 3 -10 -2 -25 -11 -32z m-199 -156 c-3 -8 -6 -5 -6 6 -1 11 2 17 5 13 3
-3 4 -12 1 -19z m-61 -27 c-4 -5 -2 -11 2 -13 5 -1 1 -11 -8 -21 -14 -14 -20
-15 -26 -6 -4 8 -3 10 4 5 7 -4 13 -2 13 3 1 6 3 16 4 21 1 6 3 12 4 15 0 3 4
5 7 5 3 0 3 -4 0 -9z m-127 -137 c-14 -13 -16 -13 -16 0 0 8 5 12 10 9 7 -4 8
1 3 13 -6 15 -5 17 5 6 11 -10 10 -15 -2 -28z m-106 -85 c-8 -8 -13 -7 -18 2
-5 8 -4 10 3 5 7 -4 12 -2 12 5 0 7 3 9 7 6 4 -4 2 -12 -4 -18z m-55 -45 c-17
-17 -28 -22 -33 -15 -4 7 -1 10 7 9 7 -2 12 3 10 10 -1 8 2 11 8 7 5 -3 13 1
16 10 4 9 9 13 12 10 3 -3 -6 -17 -20 -31z m10907 -20789 c6 0 15 4 22 8 19
12 26 -12 9 -29 -12 -12 -16 -12 -17 -2 0 11 -1 11 -6 0 -4 -10 -9 -8 -20 7
-8 12 -19 18 -25 15 -7 -4 -8 -2 -4 5 5 7 12 9 19 3 7 -4 17 -8 22 -7z m-80
-4 c-9 -8 -36 -10 -30 -2 2 4 11 8 20 8 8 0 13 -3 10 -6z m-94 -29 c0 -14 2
-13 9 3 8 16 9 14 5 -10 -2 -16 -4 -32 -5 -35 -1 -3 -2 -9 -1 -13 1 -5 -3 -6
-9 -2 -7 4 -7 11 -2 18 5 7 3 22 -5 37 l-14 25 4 -28 c2 -15 0 -30 -5 -33 -4
-3 -5 -10 -2 -16 5 -7 2 -8 -5 -3 -9 5 -9 11 -3 17 6 6 8 17 5 24 -7 19 5 47
17 39 5 -3 10 -14 11 -23z m-61 -6 c0 -7 -10 -21 -22 -32 -14 -12 -18 -13 -10
-3 6 9 9 19 6 22 -4 3 -4 13 0 22 7 18 26 11 26 -9z m-221 -50 c9 -10 8 -16
-4 -26 -9 -8 -15 -9 -14 -4 4 23 -2 26 -17 8 -16 -20 -8 1 9 24 12 15 12 15
26 -2z m-179 -51 c-5 -7 -6 -16 -2 -21 4 -4 -2 -2 -12 6 -20 15 -23 15 -43 -2
-7 -6 -13 -7 -13 -2 0 5 -5 2 -10 -6 -9 -13 -10 -13 -10 0 0 13 -1 13 -11 0
-9 -13 -10 -13 -6 0 2 8 13 16 25 16 12 1 24 3 27 4 3 1 9 3 14 4 5 0 12 4 15
7 3 3 13 6 21 6 10 0 12 -4 5 -12z m-259 -78 c-10 -9 -11 -8 -5 6 3 10 9 15
12 12 3 -3 0 -11 -7 -18z"/>
<path d="M50211 38132 c0 -10 4 -26 9 -37 8 -18 9 -18 9 -2 1 10 5 16 9 13 5
-3 8 4 7 16 -2 25 -35 35 -34 10z m22 -7 c-3 -9 -8 -14 -10 -11 -3 3 -2 9 2
15 9 16 15 13 8 -4z"/>
<path d="M50165 38066 c-11 -20 -16 -38 -12 -42 4 -4 7 0 7 10 0 9 4 15 8 12
12 -7 31 29 23 43 -5 7 -14 -1 -26 -23z"/>
<path d="M50065 37960 c-8 -9 -15 -21 -15 -26 0 -4 7 2 16 14 8 12 19 20 24
17 5 -3 11 -2 14 3 10 16 -24 9 -39 -8z"/>
<path d="M60031 16534 c0 -11 3 -14 6 -6 3 7 2 16 -1 19 -3 4 -6 -2 -5 -13z"/>
<path d="M53547 38201 c-4 -17 -3 -21 5 -13 5 5 8 16 6 23 -3 8 -7 3 -11 -10z"/>
<path d="M50376 38188 c3 -5 10 -6 15 -3 13 9 11 12 -6 12 -8 0 -12 -4 -9 -9z"/>
<path d="M53385 38110 c2 -11 0 -22 -6 -25 -5 -4 -9 -1 -9 6 0 24 -11 1 -15
-31 -5 -35 -18 -58 -15 -25 1 11 2 27 1 35 -1 13 -3 13 -10 0 -6 -8 -8 -17 -5
-21 2 -5 6 -28 8 -54 3 -32 1 -43 -7 -39 -9 5 -9 4 0 -6 18 -19 31 -4 28 32
-2 18 2 39 7 46 6 6 7 12 4 12 -4 0 -2 9 4 20 6 11 15 18 20 15 10 -6 35 34
26 43 -3 3 -6 0 -6 -6 0 -7 -5 -12 -11 -12 -5 0 -8 4 -4 9 3 5 1 12 -4 16 -6
3 -8 -3 -6 -15z"/>
<path d="M53295 38040 c21 -24 19 -36 -4 -16 -17 16 -18 16 -17 -3 0 -11 -3
-20 -9 -20 -5 1 -9 4 -8 8 1 4 -4 8 -12 8 -8 0 -14 -3 -13 -6 0 -3 -1 -9 -2
-13 -1 -5 -3 -14 -4 -20 -1 -7 -7 -12 -13 -11 -7 1 -9 -13 -7 -40 4 -38 3 -40
-10 -22 -8 11 -12 28 -10 39 2 10 0 15 -4 12 -4 -4 -7 -17 -7 -29 -1 -14 -6
-21 -15 -19 -8 2 -12 0 -8 -4 4 -4 2 -14 -4 -23 -7 -9 0 -5 15 8 27 24 38 17
15 -9 -11 -12 -10 -12 3 -2 9 6 19 9 22 6 4 -4 11 5 16 20 13 32 24 35 17 4
-3 -13 -3 -17 0 -10 3 6 10 10 15 6 5 -3 12 2 15 10 3 9 11 13 16 10 7 -5 9 4
6 24 -3 19 0 29 5 25 6 -3 7 -1 3 5 -3 6 -2 13 3 16 5 4 12 2 15 -3 4 -5 2
-12 -4 -16 -5 -3 -10 -15 -10 -26 0 -11 5 -17 10 -14 6 4 8 10 5 15 -3 5 -1
11 5 15 12 7 3 68 -11 73 -5 2 -7 7 -5 11 3 4 -1 8 -9 8 -13 0 -13 -3 0 -17z
m-8 -48 c-8 -10 -12 -23 -10 -29 2 -7 -2 -22 -10 -33 -13 -19 -15 -19 -21 -4
-5 13 -9 14 -20 5 -16 -14 -17 3 -1 28 7 12 10 11 16 -5 7 -18 8 -18 9 1 l1
20 10 -20 9 -20 -3 20 c-1 11 -8 21 -15 21 -22 2 -23 4 -17 14 5 8 11 8 20 0
14 -12 40 11 27 25 -4 5 -1 5 6 1 11 -7 11 -11 -1 -24z"/>
<path d="M49810 37726 c0 -8 4 -17 9 -20 5 -4 7 3 4 14 -6 23 -13 26 -13 6z"/>
<path d="M49115 37139 c-4 -6 -5 -12 -2 -15 2 -3 7 2 10 11 7 17 1 20 -8 4z"/>
<path d="M33837 33404 c-1 -2 -29 -5 -62 -8 -77 -7 -152 -17 -179 -22 -12 -2
-32 -6 -46 -9 -14 -3 -36 -7 -50 -10 -14 -3 -36 -8 -50 -11 -14 -2 -32 -7 -40
-11 -8 -3 -26 -8 -40 -10 -13 -2 -27 -7 -30 -11 -3 -4 -14 -8 -25 -10 -11 -2
-35 -12 -53 -23 -18 -10 -30 -14 -27 -8 8 13 -37 -12 -47 -26 -5 -6 -8 -6 -8
-1 0 6 -7 1 -16 -10 -8 -10 -12 -12 -8 -4 6 12 3 11 -12 -2 -10 -9 -23 -18
-29 -20 -5 -2 -9 -8 -9 -14 1 -6 -5 -11 -12 -11 -7 0 -10 5 -7 10 4 6 1 7 -6
3 -7 -5 -10 -15 -6 -23 4 -13 3 -14 -10 -3 -12 10 -16 9 -21 -4 -3 -9 -9 -14
-14 -11 -4 2 -6 -6 -5 -20 4 -28 -15 -47 -34 -36 -9 6 -10 11 -2 15 6 4 11 2
11 -4 0 -6 5 -8 11 -4 8 4 7 9 -2 15 -12 7 -12 9 0 9 8 0 11 3 8 7 -9 8 -48
-27 -42 -38 3 -4 1 -10 -5 -14 -5 -3 -10 -12 -10 -18 0 -7 8 -3 16 8 22 27 14
9 -16 -40 -28 -44 -30 -55 -18 -72 5 -6 5 -14 -2 -18 -6 -4 -9 -3 -8 2 2 4 -1
8 -7 8 -5 0 -8 -4 -6 -10 2 -5 3 -18 3 -29 -1 -18 -1 -18 14 0 9 11 12 13 9 6
-6 -10 -3 -11 11 -3 76 41 322 113 482 140 733 124 1345 -38 1816 -481 468
-440 687 -1002 670 -1718 -16 -692 -228 -1314 -644 -1895 -330 -459 -815 -905
-1420 -1305 -69 -45 -124 -86 -123 -91 2 -5 -5 -5 -14 -2 -10 4 -14 2 -10 -4
4 -6 0 -10 -10 -9 -9 0 -18 -5 -21 -13 -3 -9 0 -11 7 -7 7 5 10 2 9 -6 -2 -7
3 -12 10 -10 8 1 11 -2 8 -7 -4 -5 -2 -12 4 -16 9 -5 14 6 12 26 -1 3 5 6 13
6 12 0 12 -3 0 -20 -7 -11 -11 -27 -8 -36 4 -12 3 -13 -5 -2 -8 11 -10 11 -15
0 -4 -11 -6 -11 -6 0 -1 11 -5 10 -17 -5 -8 -10 -13 -13 -9 -6 4 7 -1 25 -10
40 l-16 27 20 -23 c11 -12 22 -18 25 -14 3 5 -6 20 -19 32 -14 13 -25 18 -25
12 0 -7 -7 -12 -15 -12 -8 0 -15 -5 -15 -11 0 -5 4 -8 9 -4 10 6 43 -34 36
-45 -5 -9 -69 -6 -72 3 -2 4 -3 13 -3 20 0 9 3 8 9 -2 6 -9 11 -10 15 -2 12
19 -3 32 -24 19 -10 -7 -17 -14 -15 -18 4 -7 -23 -31 -32 -28 -11 4 -13 -61
-3 -67 5 -3 12 0 16 6 4 8 3 9 -4 5 -7 -4 -12 -3 -12 2 0 17 13 22 27 11 11
-10 11 -15 1 -28 -12 -14 -11 -14 5 -2 16 12 16 16 2 31 -8 9 -15 22 -15 29 0
7 11 -1 25 -16 14 -15 24 -23 23 -16 -2 6 1 10 7 10 5 -1 9 -6 7 -12 -1 -5 9
2 22 17 13 15 27 24 30 21 3 -4 -4 -18 -16 -32 -14 -16 -9 -13 13 7 28 26 38
30 48 20 10 -9 12 -9 7 -1 -3 6 -2 14 4 18 5 3 10 14 10 24 0 10 7 24 15 31
14 11 14 15 -2 34 -18 21 -18 21 4 2 13 -10 20 -22 18 -27 -3 -4 2 -14 10 -23
8 -8 11 -17 6 -20 -5 -4 -11 0 -14 6 -3 7 -4 3 -4 -9 1 -22 1 -22 22 -3 17 16
24 18 35 7 8 -6 11 -8 7 -3 -4 5 -2 15 4 22 6 8 9 21 5 29 -3 9 -2 13 4 10 6
-3 10 -12 10 -20 0 -8 4 -16 9 -20 6 -3 6 6 1 25 -5 19 -5 28 1 25 5 -4 9 -12
9 -20 0 -8 4 -16 9 -19 12 -8 2 35 -13 53 -9 12 -8 13 4 6 8 -6 23 -10 33 -11
9 -1 18 -2 20 -4 9 -7 38 -7 43 1 3 5 10 7 15 4 5 -3 6 1 2 10 -5 13 -7 14
-14 3 -7 -10 -9 -10 -9 2 -1 12 -3 12 -14 -3 -12 -16 -14 -16 -20 -2 -3 9 -2
13 3 10 5 -3 12 -1 16 4 3 5 14 8 25 6 23 -4 26 5 8 25 -11 12 -10 12 5 0 10
-7 16 -19 13 -26 -3 -7 -1 -16 5 -19 5 -4 8 -3 7 2 -2 4 0 8 3 8 4 0 17 9 29
20 12 11 25 19 28 17 4 -2 8 2 10 10 2 9 0 8 -7 -2 -8 -12 -10 -11 -9 6 2 18
5 20 19 11 10 -6 15 -16 12 -22 -4 -5 6 1 20 14 15 14 27 20 27 15 0 -5 6 -2
13 7 7 9 17 16 22 16 6 0 16 11 22 24 11 21 19 14 14 -14 -1 -5 3 -6 7 -3 5 3
8 17 7 30 -3 22 -1 24 20 16 24 -9 35 -4 35 14 0 6 -5 4 -10 -4 -5 -8 -10 -10
-10 -4 0 20 27 37 36 23 5 -8 3 -9 -6 -4 -9 6 -11 4 -6 -4 6 -9 13 -8 27 5 24
21 25 31 2 13 -16 -13 -17 -12 -4 4 9 12 17 14 26 7 13 -11 25 -4 25 14 0 6
-5 4 -10 -4 -5 -8 -10 -10 -10 -4 0 18 12 24 26 13 8 -7 14 -6 20 2 5 8 3 9
-6 4 -9 -6 -11 -4 -6 4 5 7 15 10 23 6 14 -5 14 -3 2 11 -13 16 -12 16 9 5 21
-11 27 -8 23 13 -1 5 5 6 13 3 8 -3 22 4 33 16 18 22 18 22 -4 4 -16 -14 -23
-15 -29 -6 -4 7 -3 10 3 6 6 -4 16 0 23 8 10 12 16 13 27 4 11 -9 12 -9 8 4
-4 8 -1 18 6 23 8 5 10 3 5 -7 -4 -8 2 -3 14 11 12 14 19 18 15 10 -4 -8 3 -4
16 10 13 14 22 21 19 15 -3 -6 6 1 19 15 13 14 20 18 16 10 -4 -8 3 -4 16 10
13 14 20 19 15 10 -5 -8 5 0 22 18 18 19 37 30 44 26 6 -4 9 -3 6 2 -3 5 0 15
8 22 8 7 14 10 14 7 0 -5 23 14 67 55 14 14 23 19 18 11 -5 -10 -4 -12 3 -7 7
4 12 14 12 23 0 9 2 14 5 11 3 -3 22 10 42 28 20 18 40 31 45 28 5 -3 7 -1 6
4 -4 12 49 62 56 54 3 -3 6 3 6 13 0 10 3 16 6 12 4 -3 28 16 54 43 27 28 53
50 60 50 6 0 8 5 5 10 -3 6 2 10 11 10 10 0 15 2 12 5 -3 3 32 43 76 88 45 46
106 112 136 148 30 35 65 74 77 86 12 13 19 23 15 23 -4 0 -2 4 4 8 16 11 134
168 203 270 103 154 211 348 291 527 69 152 178 475 204 605 3 14 7 36 10 50
3 14 9 41 12 60 4 19 8 44 10 55 41 210 58 446 51 700 -3 121 -8 234 -11 250
-3 17 -10 66 -16 110 -26 184 -87 416 -157 595 -34 87 -149 311 -198 385 -98
149 -194 266 -324 395 -144 143 -236 216 -406 322 -82 52 -269 148 -288 148
-4 0 -26 8 -50 19 -88 39 -256 90 -347 106 -19 3 -42 8 -50 10 -8 2 -34 7 -57
10 -23 3 -57 8 -75 11 -86 12 -155 16 -291 18 -81 1 -149 1 -150 0z m-786
-257 c-10 -9 -11 -8 -5 6 3 10 9 15 12 12 3 -3 0 -11 -7 -18z m1150 -5470
c-10 -9 -11 -8 -5 6 3 10 9 15 12 12 3 -3 0 -11 -7 -18z m-28 -12 c-7 -21 -12
-19 -10 4 0 11 5 18 9 15 4 -3 5 -11 1 -19z m-34 -21 c-14 -13 -17 -13 -30 3
-13 16 -12 17 3 4 15 -11 19 -11 24 3 4 9 9 14 12 11 3 -3 -1 -12 -9 -21z
m-80 -35 c-8 -16 -13 -18 -25 -8 -17 14 -17 16 -2 25 6 4 8 3 4 -4 -3 -6 -2
-13 4 -17 9 -6 14 8 11 28 -1 5 3 6 9 2 7 -4 7 -13 -1 -26z m-223 -74 c-3 -8
-1 -15 5 -15 6 0 9 -6 7 -12 -7 -21 -42 -15 -45 7 l-3 20 9 -20 c5 -11 10 -17
12 -12 5 20 7 28 8 37 0 6 4 10 7 10 3 0 4 -7 0 -15z m-223 -93 c4 9 6 9 6 1
2 -23 -18 -23 -29 -1 -10 21 -10 22 3 5 11 -14 16 -15 20 -5z m-56 -14 c-3 -8
-6 -5 -6 6 -1 11 2 17 5 13 3 -3 4 -12 1 -19z m95 13 c8 11 9 11 6 1 -4 -16
-22 -18 -24 -2 -2 7 -1 6 3 -1 4 -8 8 -7 15 2z"/>
<path d="M31445 33390 c-4 -6 -10 -8 -15 -5 -5 3 -16 -7 -25 -22 -14 -24 -15
-25 -12 -5 3 12 1 20 -4 16 -5 -3 -9 -13 -9 -22 0 -15 -2 -15 -10 -2 -7 11
-10 11 -10 2 0 -7 -4 -10 -10 -7 -5 3 -10 -2 -10 -11 0 -14 3 -15 12 -6 13 13
38 -1 38 -22 0 -6 -5 -4 -11 4 -8 12 -9 11 -5 -5 3 -11 1 -27 -4 -35 -8 -12
-10 -12 -10 -1 0 8 -2 12 -5 10 -2 -3 0 -18 4 -35 8 -25 9 -26 10 -6 1 13 5
20 11 17 6 -4 7 1 3 12 -6 16 -5 17 13 3 15 -11 16 -11 7 0 -22 24 -14 34 10
14 22 -19 22 -19 5 2 -25 29 -22 41 4 18 21 -18 22 -18 8 -1 -8 11 -15 28 -17
39 -3 17 -1 19 12 8 8 -7 13 -16 10 -20 -3 -5 -1 -11 4 -14 5 -4 8 2 6 11 -1
10 7 29 19 43 l21 25 -26 -23 c-14 -12 -29 -19 -32 -15 -10 10 -8 25 2 19 5
-3 14 1 21 9 7 8 10 15 7 15 -3 0 -9 -5 -12 -10z m-35 -56 c0 -8 -19 -13 -24
-6 -3 5 1 9 9 9 8 0 15 -2 15 -3z"/>
<path d="M31319 33333 c-2 -5 -26 -22 -54 -37 -27 -16 -106 -67 -174 -114
-802 -550 -1328 -1303 -1556 -2227 -195 -787 -188 -1670 20 -2610 138 -621
400 -1358 805 -2260 40 -88 78 -174 86 -192 l13 -31 -142 -77 c-78 -43 -145
-83 -149 -89 -5 -6 -8 -7 -8 -1 0 6 -7 1 -16 -10 -8 -11 -18 -19 -21 -17 -11
4 -12 -27 -2 -34 5 -3 8 -2 7 3 -2 4 2 9 7 11 6 1 10 -2 10 -7 0 -5 4 -13 8
-18 5 -4 8 -3 7 2 -4 20 1 30 9 17 7 -11 9 -10 14 3 4 9 3 14 -2 11 -11 -7
-36 22 -27 31 3 3 6 1 6 -5 0 -6 9 -9 20 -7 11 2 19 1 19 -3 -3 -19 2 -23 14
-13 10 8 14 7 14 -3 0 -8 -8 -13 -17 -11 -9 2 -17 -3 -17 -11 0 -10 4 -11 14
-3 7 6 13 8 13 3 0 -5 7 0 15 10 8 11 15 15 15 9 0 -6 14 -9 30 -8 17 1 32 -1
35 -5 3 -4 -9 -6 -25 -5 -16 1 -28 -1 -25 -5 5 -9 46 -7 62 3 6 4 15 2 19 -4
4 -8 9 -7 15 2 5 8 9 9 9 3 0 -12 79 -12 98 -1 6 5 12 5 12 1 0 -3 7 -1 15 6
8 7 15 9 15 5 0 -4 12 0 26 10 15 9 23 12 20 6 -10 -16 85 49 108 73 84 93 83
307 -4 511 -48 114 -137 321 -155 360 -7 17 -29 71 -49 120 -20 50 -41 99 -46
110 -15 32 -38 89 -112 280 -242 624 -382 1099 -468 1590 -25 144 -57 381 -65
475 -3 41 -8 84 -10 95 -6 29 -17 307 -19 460 -2 211 10 452 35 665 12 107 43
302 54 340 2 8 7 31 10 50 7 42 54 239 62 260 3 8 7 21 9 27 21 103 184 529
208 545 6 4 7 8 3 8 -28 0 300 561 347 592 6 4 7 8 3 8 -5 0 -2 6 5 14 7 7 20
24 28 36 8 12 22 30 30 40 8 11 26 34 40 52 14 18 35 43 47 55 12 13 19 23 16
23 -3 0 8 14 25 30 18 17 29 30 25 30 -4 0 8 13 25 28 18 16 32 33 32 38 0 5
21 26 45 48 24 21 42 43 39 47 -3 5 2 9 11 9 9 0 14 3 12 8 -6 9 110 121 118
113 3 -3 3 2 0 11 -4 9 -1 19 6 24 8 5 10 3 4 -6 -5 -9 -4 -11 3 -6 7 4 12 12
12 18 0 5 9 21 20 35 11 14 20 21 20 16 0 -6 -7 -16 -15 -23 -8 -7 -15 -17
-15 -23 0 -5 10 3 23 19 12 16 21 33 19 38 -2 4 5 6 14 2 14 -5 15 -4 5 8 -9
11 -9 16 0 22 8 4 9 3 5 -4 -4 -7 -2 -12 3 -12 6 0 12 10 12 23 1 18 2 19 6 4
5 -18 6 -17 20 2 8 12 18 19 22 17 10 -7 10 26 0 39 -5 7 0 11 14 12 17 2 18
0 7 -7 -12 -7 -10 -9 7 -7 17 1 20 5 12 19 -7 14 -6 18 6 18 10 0 13 -5 9 -12
-4 -7 5 -2 19 11 28 25 35 37 16 25 -7 -4 -10 -1 -7 7 3 8 14 13 26 13 12 -1
19 2 17 7 -3 4 5 15 17 23 12 9 18 16 13 16 -6 0 -16 9 -22 19 -11 17 -10 19
7 16 16 -3 18 1 16 31 -2 18 0 31 5 28 5 -3 7 -9 4 -14 -3 -4 0 -10 6 -12 9
-3 9 -10 0 -26 -7 -13 -17 -20 -24 -16 -7 4 -8 3 -4 -1 9 -11 37 -16 35 -7 -1
4 2 17 6 30 5 15 3 31 -7 46 -12 18 -13 23 -2 23 8 0 13 -3 12 -6 -2 -7 21
-71 25 -71 2 0 4 27 3 60 0 35 -4 59 -10 58 -5 -2 -8 -7 -6 -13 2 -5 5 -23 7
-40 3 -27 3 -27 -6 5 -18 61 -19 71 -10 65 13 -8 20 9 11 24 -5 7 -10 9 -12 4z
m-66 -225 c-9 -10 -19 -16 -22 -13 -8 8 -10 35 -3 34 20 -3 23 3 11 19 -11 14
-9 13 9 -2 21 -18 21 -20 5 -38z m-49 -60 c-9 -14 -23 2 -17 18 4 12 8 13 14
3 4 -7 5 -17 3 -21z m-80 -57 c3 -5 -1 -14 -8 -20 -10 -9 -16 -9 -21 -1 -4 6
-1 9 7 8 7 -2 12 3 11 10 -3 14 3 16 11 3z"/>
<path d="M31239 33113 c-13 -16 -12 -17 4 -4 16 13 21 21 13 21 -2 0 -10 -8
-17 -17z"/>
<path d="M31351 33316 c-8 -10 -8 -16 3 -25 11 -10 14 -7 12 14 -1 29 0 29
-15 11z"/>
<path d="M32941 33070 c2 -24 -13 -60 -22 -54 -5 3 -6 10 -3 16 4 6 2 8 -4 4
-6 -3 -9 -15 -7 -26 2 -11 0 -22 -5 -25 -5 -3 -6 -15 -3 -28 2 -12 5 -31 4
-42 0 -15 2 -17 9 -5 5 8 5 21 0 30 -6 11 -5 21 3 29 7 7 12 15 12 19 1 4 8
21 17 38 11 21 13 35 7 45 -8 12 -10 12 -8 -1z"/>
<path d="M32876 32923 c-6 -14 -5 -15 5 -6 7 7 10 15 7 18 -3 3 -9 -2 -12 -12z"/>
<path d="M24506 32458 c-3 -18 -15 -103 -26 -188 -84 -629 -218 -1193 -385
-1615 -190 -481 -438 -819 -762 -1035 -55 -36 -85 -63 -90 -80 -6 -23 -7 -23
-14 -5 -7 18 -8 18 -8 2 -1 -10 -5 -16 -10 -13 -5 3 -15 -2 -22 -11 -12 -15
-12 -16 1 -8 25 15 42 15 36 -1 -3 -8 -2 -12 3 -9 5 3 12 1 16 -5 4 -6 11 -7
17 -4 8 5 9 1 5 -12 -7 -18 -6 -18 7 -1 12 16 14 16 20 2 6 -18 26 -11 26 8 0
8 -3 8 -9 -1 -7 -11 -9 -10 -15 3 -3 9 -10 13 -16 10 -6 -3 -13 1 -16 10 -6
13 -8 14 -15 3 -5 -7 -9 -8 -9 -3 0 6 4 16 9 24 7 11 10 9 16 -8 3 -12 11 -19
16 -15 6 4 6 11 -1 19 -8 10 -8 15 1 21 7 4 9 3 6 -3 -4 -6 2 -18 13 -28 11
-10 20 -14 20 -9 1 5 9 -2 20 -15 11 -12 17 -28 13 -35 -4 -6 1 -5 10 2 9 8
19 23 23 34 6 19 6 19 21 -1 14 -21 33 -20 33 2 0 8 -3 8 -9 -1 -7 -11 -9 -11
-14 1 -7 19 21 16 35 -4 7 -10 8 -8 4 11 -5 24 -4 24 9 6 15 -20 15 -20 15 0
0 11 3 15 8 9 6 -10 23 -12 37 -5 3 1 9 3 14 4 5 0 12 4 16 8 9 8 -16 5 -32
-5 -6 -4 -15 -2 -19 4 -4 7 -3 9 4 5 6 -3 13 -2 16 3 4 5 17 8 31 6 17 -1 25
3 26 14 0 11 2 12 6 3 4 -10 9 -9 20 5 9 11 12 12 8 3 -4 -10 -2 -9 8 3 8 9
18 17 22 17 5 0 17 8 28 18 15 12 18 13 13 2 -4 -8 2 -4 14 10 12 14 18 18 14
10 -7 -13 9 -1 67 53 10 9 19 15 19 12 0 -2 10 6 23 18 13 12 50 47 83 78 52
49 89 90 144 161 8 10 24 30 35 43 63 77 203 322 271 477 67 152 200 517 204
560 0 4 7 27 16 50 8 23 17 53 19 67 3 14 16 69 30 121 14 52 27 102 29 110 8
32 75 357 82 395 4 22 8 49 10 60 2 11 8 46 14 77 6 32 13 70 15 85 17 89 17
142 0 179 -52 117 -89 186 -110 206 -14 13 -25 27 -25 32 0 4 -18 26 -40 47
-52 50 -87 53 -94 7z m-1133 -2952 c3 3 3 -4 0 -17 -5 -16 -8 -19 -11 -9 -3 8
-10 22 -16 30 -9 13 -9 13 5 3 9 -7 18 -10 22 -7z"/>
<path d="M23325 29475 c0 -13 3 -21 8 -18 4 2 7 10 7 18 0 8 -3 16 -7 18 -5 3
-8 -5 -8 -18z"/>
<path d="M23390 29481 c0 -6 4 -13 10 -16 6 -3 7 1 4 9 -7 18 -14 21 -14 7z"/>
<path d="M17257 27934 c-1 -1 -42 -5 -92 -8 -115 -8 -212 -36 -199 -58 3 -4 1
-8 -5 -8 -18 0 -35 -76 -19 -86 4 -3 6 -10 3 -15 -4 -5 0 -9 7 -9 9 0 9 -3 -2
-10 -9 -6 -10 -10 -3 -10 6 0 10 -9 8 -20 -2 -11 0 -20 5 -20 5 0 7 -9 5 -20
-2 -11 1 -20 6 -20 6 0 8 -4 4 -9 -3 -5 -1 -12 4 -15 5 -3 1043 -6 2307 -7
1265 -1 2367 -5 2449 -10 716 -41 1224 -182 1621 -450 248 -167 500 -424 660
-674 223 -349 339 -695 419 -1249 37 -262 75 -759 75 -1001 l0 -50 265 0 c146
0 265 1 265 1 0 1 -30 31 -66 65 -83 81 -98 105 -134 225 -24 80 -30 118 -30
194 -1 633 -138 1297 -357 1734 -83 166 -230 389 -352 536 -44 53 -211 222
-282 286 -117 105 -321 242 -499 336 -137 71 -374 168 -453 183 -9 2 -21 6
-25 9 -5 3 -19 7 -33 9 -13 3 -49 12 -79 21 -30 8 -66 17 -80 20 -14 3 -36 8
-50 11 -37 9 -120 25 -159 31 -18 3 -43 8 -55 10 -11 2 -41 7 -66 10 -25 3
-56 7 -70 9 -185 28 -361 42 -675 51 -178 5 -4313 12 -4318 8z"/>
<path d="M33910 27536 c0 -8 4 -17 9 -20 5 -4 7 3 4 14 -6 23 -13 26 -13 6z"/>
<path d="M33930 27541 c0 -6 4 -13 10 -16 6 -3 7 1 4 9 -7 18 -14 21 -14 7z"/>
<path d="M33766 27498 c-11 -35 -14 -60 -7 -52 10 11 23 64 16 64 -3 0 -7 -6
-9 -12z"/>
<path d="M33634 27482 c-10 -15 -8 -18 11 -18 20 0 22 3 14 18 -5 10 -11 18
-12 18 -1 0 -7 -8 -13 -18z"/>
<path d="M33499 27435 c-1 -3 -2 -13 -3 -23 0 -11 -7 -26 -14 -35 -10 -12 -10
-17 -1 -23 7 -4 9 -3 6 3 -7 11 26 47 34 38 3 -2 5 8 6 23 0 15 -1 19 -4 9 -2
-9 -9 -15 -14 -11 -5 3 -7 10 -4 15 4 5 4 9 1 9 -3 0 -7 -2 -7 -5z"/>
<path d="M33469 27415 c-1 -3 -2 -11 -3 -17 -1 -7 -8 -12 -15 -10 -7 1 -9 -2
-6 -9 9 -13 28 3 31 26 2 13 -4 22 -7 10z"/>
<path d="M33506 27363 c-6 -14 -5 -15 5 -6 7 7 10 15 7 18 -3 3 -9 -2 -12 -12z"/>
<path d="M37690 27110 l0 -250 23 -4 c12 -3 58 -12 102 -20 304 -59 546 -204
730 -441 221 -284 339 -607 348 -959 33 -1172 -695 -2702 -2100 -4417 -59 -72
-61 -77 -45 -94 13 -13 13 -16 2 -10 -8 5 -4 -3 9 -18 12 -14 20 -30 17 -35
-3 -5 2 -16 12 -23 16 -13 16 -13 2 6 -14 19 -14 19 3 6 9 -7 17 -19 17 -27 0
-7 5 -16 12 -20 7 -5 9 -2 4 7 -4 8 0 5 8 -5 9 -11 16 -16 16 -10 0 5 5 2 10
-7 5 -9 19 -15 32 -13 13 1 30 3 40 3 19 1 39 22 143 147 22 27 48 56 58 66 9
10 14 18 11 18 -3 0 1 6 8 14 19 20 48 55 88 106 19 25 37 47 40 50 3 3 30 37
59 75 30 39 61 76 70 83 8 6 11 12 5 12 -5 0 -4 4 1 8 6 4 36 41 68 82 31 41
60 80 64 85 33 41 168 226 259 355 311 439 556 834 757 1220 39 74 75 138 81
142 6 4 8 8 4 8 -4 0 26 69 67 153 68 141 86 181 152 342 103 251 209 576 258
789 9 41 44 212 50 244 42 254 53 389 50 617 -3 216 -16 322 -56 485 -65 261
-205 540 -373 745 -61 74 -188 197 -241 233 -22 15 -42 29 -45 32 -14 14 -119
78 -145 88 -27 10 -104 29 -255 63 -58 13 -82 33 -287 253 -54 57 -67 66 -98
66 l-35 0 0 -250z"/>
<path d="M42656 27023 c-1 -2 -31 -5 -67 -8 -35 -3 -80 -8 -99 -10 -19 -2 -53
-6 -75 -9 -129 -14 -182 -28 -229 -60 -16 -11 -26 -14 -22 -7 11 16 -33 -7
-52 -29 -12 -13 -13 -13 -7 0 4 8 -1 6 -9 -5 -9 -10 -28 -19 -43 -20 -15 0
-28 -7 -30 -15 -4 -13 -3 -13 6 0 7 9 11 10 11 3 0 -17 -17 -25 -25 -13 -5 8
-13 6 -24 -4 -10 -9 -20 -14 -23 -11 -2 3 -5 -2 -6 -10 -1 -8 -3 -21 -4 -29
-1 -8 -4 -14 -7 -13 -12 4 -81 -80 -73 -88 4 -5 1 -5 -5 -1 -12 7 -18 -5 -14
-27 1 -5 -3 -6 -8 -3 -14 9 -21 -20 -8 -33 6 -6 7 -11 3 -11 -5 0 -3 -6 3 -14
9 -11 9 -16 0 -22 -7 -4 -9 -3 -5 4 3 6 2 13 -4 17 -6 4 -8 10 -5 15 3 5 0 12
-6 16 -9 5 -10 -4 -6 -32 4 -25 4 -32 -2 -19 -7 16 -9 17 -13 5 -3 -8 -3 -2 0
15 2 16 12 41 21 54 12 19 12 23 2 17 -10 -6 -12 -5 -7 3 4 6 12 9 17 6 8 -6
13 9 10 28 -1 5 4 5 10 1 8 -5 9 -3 4 6 -6 9 -4 11 5 5 9 -6 11 -4 5 5 -5 9
-4 11 3 6 17 -10 15 -1 -4 14 -12 11 -15 11 -12 -1 2 -8 -2 -13 -9 -12 -7 2
-10 -6 -8 -17 3 -18 -5 -24 -27 -21 -4 0 -5 -10 -2 -24 4 -20 1 -23 -18 -20
-16 4 -19 2 -10 -7 14 -14 16 -52 2 -43 -6 4 -7 -2 -1 -17 11 -31 25 -29 164
26 160 62 329 110 532 151 174 35 428 75 478 75 15 0 27 5 27 12 0 6 -3 9 -6
5 -7 -6 -39 20 -109 89 -76 76 -92 84 -159 81 -32 -1 -59 -3 -60 -4z m-662
-194 c-10 -12 -18 -24 -17 -28 1 -3 0 -8 -2 -9 -2 -2 -3 3 -1 11 2 16 25 47
34 47 3 0 -3 -9 -14 -21z"/>
<path d="M41940 26811 c0 -7 -5 -9 -10 -6 -6 4 -9 1 -8 -7 2 -7 -2 -12 -9 -11
-17 3 -33 -21 -24 -35 6 -9 16 -3 35 23 16 20 25 39 22 42 -3 4 -6 1 -6 -6z
m-30 -41 c0 -5 -5 -10 -11 -10 -5 0 -7 5 -4 10 3 6 8 10 11 10 2 0 4 -4 4 -10z"/>
<path d="M30240 25631 c0 -6 4 -13 10 -16 6 -3 7 1 4 9 -7 18 -14 21 -14 7z"/>
<path d="M29790 25466 c0 -2 8 -10 18 -17 15 -13 16 -12 3 4 -13 16 -21 21
-21 13z"/>
<path d="M29714 25436 c1 -8 5 -18 8 -22 4 -3 5 1 4 10 -1 8 -5 18 -8 22 -4 3
-5 -1 -4 -10z"/>
<path d="M29666 25412 c-2 -4 -1 -14 4 -22 7 -11 9 -9 7 8 -1 24 -3 26 -11 14z"/>
<path d="M29693 25405 c0 -8 4 -12 9 -9 5 3 6 10 3 15 -9 13 -12 11 -12 -6z"/>
<path d="M29615 25382 c2 -3 0 -12 -5 -22 -6 -12 -5 -23 6 -36 14 -18 15 -18
5 2 -7 15 -6 26 4 41 12 17 12 20 -1 20 -8 0 -12 -2 -9 -5z"/>
<path d="M29645 25373 c-11 -25 -15 -46 -7 -38 4 4 7 10 7 13 0 4 4 13 9 20 4
7 6 15 3 18 -2 3 -8 -3 -12 -13z"/>
<path d="M29586 25365 c-3 -10 -11 -13 -18 -9 -10 6 -11 5 -1 -8 7 -8 10 -18
6 -21 -3 -4 -12 1 -20 11 -13 16 -13 15 -5 -3 10 -22 5 -48 -8 -40 -5 3 -7 12
-4 19 3 8 1 17 -5 21 -7 4 -8 -1 -4 -12 6 -16 5 -16 -11 -4 -15 12 -17 12 -14
0 2 -9 -4 -13 -17 -12 -11 1 -14 0 -7 -3 19 -9 14 -23 -8 -19 -11 2 -22 -1
-25 -6 -4 -5 -10 -7 -14 -4 -5 2 -16 -4 -26 -15 -10 -11 -21 -17 -26 -15 -4 3
-15 -5 -23 -17 -9 -12 -16 -19 -16 -15 0 10 -112 -52 -122 -67 -14 -21 -7 -31
8 -11 8 11 22 19 31 17 10 -2 12 1 7 9 -5 8 -3 10 6 4 9 -5 11 -4 6 3 -4 7 -2
12 3 12 6 0 11 -5 11 -12 0 -13 14 -2 16 13 1 5 2 12 3 15 0 4 9 0 18 -7 15
-12 16 -12 10 4 -9 24 0 21 14 -4 7 -13 7 -19 1 -15 -6 3 -17 -3 -25 -15 -11
-15 -16 -17 -20 -7 -2 7 -8 2 -12 -14 l-7 -26 -20 20 c-16 16 -22 17 -28 8 -5
-7 -5 -20 -2 -29 6 -14 7 -14 10 2 5 23 17 22 20 -3 5 -55 4 -54 29 -26 13 15
23 34 23 42 0 8 5 12 10 9 6 -4 8 -10 5 -15 -3 -5 -1 -11 4 -15 6 -3 8 3 6 14
-2 10 3 27 10 38 13 16 14 15 10 -15 -2 -19 0 -30 6 -26 5 3 7 9 4 14 -8 13
14 52 25 45 4 -3 17 6 28 20 11 13 22 21 26 17 4 -3 4 2 0 13 -7 18 -6 18 9 6
9 -7 14 -18 10 -25 -3 -6 -2 -7 3 -3 5 5 9 17 9 28 0 10 5 18 10 17 6 -2 9 -7
7 -11 -1 -5 2 -6 8 -2 6 3 8 10 5 15 -3 5 -1 11 4 15 6 3 7 13 4 23 -6 15 -5
15 10 3 9 -7 14 -18 10 -25 -10 -15 -13 -40 -5 -31 4 4 8 11 8 16 1 5 2 10 4
12 1 1 3 10 5 20 5 26 26 48 39 40 7 -4 7 -1 -1 8 -10 12 -10 18 -1 27 6 6 9
14 6 17 -3 3 -8 -1 -12 -10z m-71 -77 c-1 -13 -6 -23 -11 -23 -18 0 -34 -17
-28 -27 4 -7 2 -8 -4 -4 -7 4 -12 15 -12 24 0 9 -9 -2 -19 -24 -28 -61 -47
-67 -42 -14 2 13 0 13 -8 1 -5 -8 -7 -20 -4 -27 8 -20 -15 -26 -26 -6 -7 14
-6 24 4 38 8 11 15 15 15 10 0 -5 11 1 25 14 14 13 25 20 25 16 0 -5 6 -4 13
1 6 6 20 9 30 8 9 -2 22 5 27 16 14 25 17 24 15 -3z m-172 -133 c-3 -9 -8 -14
-10 -11 -3 3 -2 9 2 15 9 16 15 13 8 -4z m-33 -28 c0 -7 -6 -21 -13 -31 -13
-17 -14 -18 -20 -2 -4 11 -3 15 4 11 6 -4 13 2 16 14 6 24 13 28 13 8z"/>
<path d="M29412 25247 c-5 -6 -7 -20 -3 -29 5 -15 8 -13 18 7 12 27 2 43 -15
22z"/>
<path d="M29367 25217 c-3 -8 -2 -20 3 -26 5 -9 8 -4 8 13 0 29 -3 32 -11 13z"/>
<path d="M29665 25361 c-3 -5 -2 -12 3 -15 5 -3 9 1 9 9 0 17 -3 19 -12 6z"/>
<path d="M30848 25205 c-94 -34 -167 -82 -168 -112 0 -6 -5 -13 -11 -15 -6 -2
-12 -16 -12 -31 -1 -15 -6 -27 -11 -27 -4 0 -6 -9 -3 -20 3 -11 0 -20 -6 -20
-7 0 -5 -5 3 -10 13 -9 13 -10 0 -10 -13 0 -13 -1 0 -10 10 -6 11 -10 3 -10
-7 0 -13 -5 -13 -11 0 -5 4 -8 8 -5 5 3 9 -1 9 -9 0 -8 -3 -12 -7 -10 -4 2 -6
-8 -5 -23 1 -16 7 -26 14 -24 7 1 65 32 127 69 66 38 118 62 123 57 4 -5 95
-180 201 -389 686 -1351 1200 -2242 1824 -3163 185 -273 514 -750 644 -932
268 -378 375 -529 480 -675 179 -249 308 -427 521 -717 83 -114 151 -211 151
-215 0 -15 -351 -297 -665 -534 -204 -154 -376 -277 -580 -413 -99 -66 -184
-126 -188 -133 -5 -7 -13 -10 -19 -7 -8 5 -9 1 -4 -11 5 -15 4 -16 -9 -5 -13
11 -15 9 -11 -11 3 -13 5 -26 5 -29 1 -3 6 2 12 10 8 11 9 9 3 -10 -6 -22 -5
-23 9 -12 9 7 14 22 12 32 -2 10 4 25 13 32 15 11 15 11 6 -2 -13 -19 -12 -40
1 -39 6 0 9 7 8 16 -2 22 17 1 21 -24 2 -11 0 -26 -6 -34 -8 -12 -9 -11 -5 2
3 9 -1 16 -8 16 -10 0 -11 -5 -5 -17 5 -10 8 -19 7 -22 -1 -2 6 5 16 16 11 12
17 30 14 43 -2 13 -2 21 1 18 3 -2 11 0 18 6 10 9 15 7 20 -5 3 -9 10 -13 16
-10 5 3 4 13 -4 22 -7 10 -8 14 -4 10 5 -4 16 -2 25 5 14 10 14 10 4 -4 -7 -9
-10 -19 -6 -23 4 -4 13 4 20 16 7 13 12 17 13 10 0 -7 5 -10 10 -7 8 5 7 12
-2 23 -11 13 -11 14 2 7 30 -19 87 -5 73 18 -4 7 0 7 10 -2 19 -15 23 -26 5
-15 -7 5 -8 3 -3 -6 5 -8 4 -11 -1 -7 -6 3 -16 2 -24 -4 -11 -6 -12 -9 -2 -9
8 0 10 -5 6 -12 -4 -7 6 -1 21 14 22 21 26 30 17 41 -9 11 -8 14 3 14 8 0 12
-4 9 -9 -3 -4 0 -8 6 -8 6 0 9 -4 5 -9 -3 -5 -1 -13 5 -16 6 -4 9 -1 8 6 -2 7
3 14 10 15 6 1 15 3 20 4 4 1 10 2 15 1 4 0 6 5 5 11 -2 7 3 12 10 10 8 -1 11
2 7 8 -3 6 -10 8 -15 5 -4 -3 -14 3 -21 13 -12 15 -12 16 2 4 13 -10 18 -10
28 1 6 8 7 18 3 23 -4 4 1 3 10 -4 14 -11 18 -10 26 4 8 15 9 15 15 0 4 -10 3
-15 -3 -11 -6 3 -13 -1 -16 -10 -5 -12 -9 -13 -14 -5 -5 8 -10 8 -14 2 -3 -5
1 -13 9 -16 9 -3 18 1 21 9 4 8 10 13 14 10 4 -2 15 4 25 15 10 11 22 17 26
14 5 -3 12 2 15 10 3 9 10 14 14 11 4 -3 14 3 21 12 8 9 9 14 2 10 -13 -8 -12
18 2 30 4 4 5 2 1 -4 -4 -8 -1 -13 9 -13 10 0 13 -5 9 -12 -4 -7 2 -5 13 5 11
9 23 14 27 10 4 -5 6 -1 4 7 -2 8 3 14 10 12 8 -1 11 2 8 7 -4 5 -2 12 4 16 6
4 8 10 5 15 -3 5 0 12 6 16 7 4 9 3 6 -3 -4 -6 2 -13 14 -16 17 -5 18 -3 8 9
-10 12 -9 13 4 9 8 -4 18 -1 23 6 4 7 3 10 -4 5 -6 -3 -13 -2 -16 3 -7 10 13
9 31 -2 7 -4 26 10 48 38 33 40 39 43 59 33 18 -10 19 -9 8 4 -10 13 -10 18
-1 24 7 4 9 3 6 -3 -4 -6 -1 -13 7 -16 9 -4 12 2 10 18 -2 21 1 23 21 15 20
-8 23 -6 18 8 -6 15 -5 16 12 2 17 -14 18 -14 7 6 -9 16 -8 21 3 21 8 0 11 -5
8 -10 -4 -6 -1 -7 6 -3 7 5 10 15 6 23 -5 14 -3 14 12 2 15 -12 16 -12 10 5
-6 15 -5 17 6 8 19 -16 30 -3 14 16 -10 13 -9 14 9 4 23 -12 35 -3 63 43 9 15
11 15 7 3 -8 -28 3 -21 14 8 9 22 13 24 25 14 13 -11 14 -10 10 3 -4 8 -1 18
6 23 7 4 10 3 6 -3 -3 -5 0 -10 7 -10 8 0 12 8 9 21 -4 15 -2 17 5 8 7 -11 10
-11 16 3 3 9 11 13 18 9 8 -5 9 -2 4 11 -5 14 -4 16 7 7 16 -13 37 2 37 27 0
14 1 14 10 1 8 -12 10 -10 11 10 0 14 3 19 6 11 4 -10 9 -8 20 10 8 13 12 16
9 7 -8 -27 3 -21 14 7 5 14 17 25 25 25 10 0 13 5 9 13 -5 7 0 6 11 -3 10 -8
16 -10 12 -4 -4 7 1 18 10 25 14 12 16 12 9 -1 -4 -8 2 -4 14 10 12 14 18 18
14 10 -5 -10 -1 -9 14 3 12 11 26 16 33 11 7 -4 10 -3 6 2 -3 5 19 21 49 34
30 14 54 28 54 33 0 4 7 7 15 7 8 0 15 5 15 10 0 6 5 10 11 10 19 0 79 67 95
107 21 49 41 131 39 163 -10 148 -50 257 -138 375 -91 124 -459 631 -529 730
-19 28 -98 138 -175 245 -154 214 -196 274 -284 400 -32 47 -97 139 -143 205
-84 119 -207 297 -367 530 -175 256 -442 660 -581 880 -124 196 -173 277 -289
473 -54 90 -188 323 -227 392 -13 25 -53 95 -87 155 -64 114 -206 373 -290
530 -27 50 -56 105 -66 122 -10 18 -64 122 -120 230 -56 109 -105 203 -109
208 -4 6 -72 138 -150 295 -170 338 -206 396 -269 437 -96 63 -239 94 -313 68z
m3613 -6798 c-10 -9 -11 -8 -5 6 3 10 9 15 12 12 3 -3 0 -11 -7 -18z m-183
-133 c-12 -12 -17 -13 -23 -3 -5 8 -4 10 4 5 6 -4 14 0 17 9 4 9 9 13 12 10 3
-3 -1 -13 -10 -21z m-287 -197 c-10 -9 -11 -8 -5 6 3 10 9 15 12 12 3 -3 0
-11 -7 -18z m-127 -78 c-9 -10 -21 -16 -26 -13 -11 7 -1 19 15 19 7 1 11 7 9
14 -1 7 2 9 8 6 8 -5 6 -13 -6 -26z m-73 -36 c8 -10 9 -14 2 -10 -6 4 -16 0
-21 -9 -8 -15 -10 -15 -15 0 -4 9 -1 15 6 13 7 -1 11 4 10 11 -4 17 2 15 18
-5z m-48 -26 c4 3 7 4 7 1 0 -3 -8 -12 -17 -19 -10 -7 -15 -9 -11 -5 4 5 2 16
-5 25 -10 14 -10 14 4 4 9 -7 19 -10 22 -6z m-130 -70 c-4 -7 1 -8 12 -3 15 5
16 4 5 -9 -10 -12 -15 -13 -20 -4 -6 8 -9 8 -13 -2 -3 -8 -5 -5 -4 7 1 11 7
21 14 21 6 0 9 -5 6 -10z"/>
<path d="M29429 25173 l-24 -28 28 24 c25 23 32 31 24 31 -2 0 -14 -12 -28
-27z"/>
<path d="M29313 25175 c0 -8 4 -12 9 -9 5 3 6 10 3 15 -9 13 -12 11 -12 -6z"/>
<path d="M29275 25150 c-3 -5 -1 -10 4 -10 6 0 11 5 11 10 0 6 -2 10 -4 10 -3
0 -8 -4 -11 -10z"/>
<path d="M29183 25133 c-7 -3 -13 -12 -13 -21 0 -15 2 -15 11 -2 9 13 10 12 5
-2 -3 -10 -1 -20 3 -23 11 -6 21 29 12 42 -3 6 -12 8 -18 6z"/>
<path d="M29211 25097 c-6 -16 -8 -33 -5 -39 5 -7 2 -8 -6 -3 -9 6 -11 4 -5
-6 7 -11 5 -11 -11 1 -29 22 -30 24 -11 17 13 -5 17 -3 14 5 -2 7 -10 12 -16
11 -6 -2 -10 3 -8 10 1 7 -6 11 -17 9 -25 -5 -66 -32 -66 -44 0 -5 -5 -6 -10
-3 -6 4 -8 -3 -6 -17 2 -13 8 -22 14 -21 6 2 9 -6 7 -17 -2 -11 0 -22 6 -25 5
-4 10 3 10 14 1 12 2 27 3 34 1 6 -1 17 -6 23 -5 7 1 19 15 30 22 19 22 19 4
-2 -9 -11 -14 -24 -10 -28 5 -4 9 -12 9 -17 3 -22 5 -23 14 -9 5 8 5 19 0 25
-5 6 -2 18 6 30 14 19 15 19 10 -7 -5 -28 9 -48 17 -26 4 10 7 10 18 0 9 -8
10 -12 2 -10 -6 2 -24 -13 -39 -32 -15 -19 -24 -27 -21 -18 3 10 2 20 -2 23
-5 2 -11 -10 -15 -28 -5 -23 -9 -28 -15 -18 -7 11 -10 9 -16 -8 -4 -13 -4 -25
-1 -28 3 -4 6 1 6 11 0 9 5 14 10 11 6 -4 7 -12 4 -18 -4 -7 -3 -8 2 -4 5 5
10 13 10 18 1 5 2 14 3 20 0 5 6 7 11 4 6 -4 7 -12 4 -18 -4 -7 -3 -8 2 -4 5
5 10 13 10 18 1 5 2 14 3 20 0 5 6 7 11 4 6 -4 7 -12 4 -18 -4 -7 -3 -8 2 -4
5 5 9 14 9 20 1 7 6 11 13 10 7 -2 11 0 11 5 -3 20 2 33 11 27 6 -4 7 -12 4
-18 -4 -7 -3 -8 2 -4 5 5 9 14 9 20 1 7 6 11 13 10 7 -2 11 0 11 5 -3 20 3 23
18 11 15 -12 16 -12 8 1 -5 8 -9 24 -8 35 2 19 2 19 -4 0 -5 -17 -7 -16 -18
10 l-13 30 -11 -28z m22 -16 c3 -12 -3 -27 -16 -38 -13 -12 -17 -13 -11 -3 9
16 11 21 13 45 1 21 8 19 14 -4z m-67 -79 c-17 -16 -18 -16 -5 5 7 12 15 20
18 17 3 -2 -3 -12 -13 -22z"/>
<path d="M29027 25039 c-10 -6 -15 -14 -12 -19 3 -5 0 -12 -6 -16 -8 -5 -9 -3
-4 6 5 8 3 11 -6 8 -8 -3 -13 -10 -12 -16 2 -6 -3 -9 -10 -6 -7 2 -24 -6 -37
-18 -14 -13 -27 -22 -30 -20 -16 9 -746 -491 -1037 -711 -685 -516 -1251
-1056 -1616 -1541 -676 -897 -1067 -1807 -1184 -2751 -22 -179 -25 -753 -5
-915 109 -860 462 -1556 1114 -2196 611 -600 1346 -972 2278 -1153 356 -69
684 -101 1125 -108 765 -13 1410 69 2102 268 336 96 798 271 788 297 -4 12 -3
13 10 2 10 -8 15 -9 15 -2 0 6 6 9 13 7 17 -7 79 33 72 45 -4 6 -11 8 -16 4
-5 -3 -6 -10 -3 -16 4 -7 2 -8 -5 -4 -8 5 -9 12 -2 19 6 8 4 19 -6 32 -15 20
-15 20 -10 -2 3 -13 1 -26 -4 -29 -6 -3 -5 -12 3 -22 12 -15 11 -16 -5 -3 -11
9 -14 18 -8 24 5 5 6 19 1 31 -7 19 -4 22 15 22 16 0 21 -5 18 -15 -4 -14 -3
-14 7 -1 10 13 11 13 6 -2 -3 -10 -1 -20 4 -23 5 -3 11 3 13 12 2 10 3 8 2 -5
-1 -12 2 -25 6 -28 5 -3 9 0 9 6 0 6 4 9 9 5 5 -3 12 -1 16 5 4 6 10 8 15 5 5
-3 13 3 19 12 5 10 13 18 18 18 4 0 6 6 5 14 -3 12 -1 12 10 3 12 -9 19 -7 37
12 15 16 19 26 12 31 -7 4 -10 1 -9 -7 2 -7 -3 -12 -10 -10 -6 1 -11 -2 -10
-7 2 -5 -1 -8 -7 -7 -5 0 -9 9 -9 19 1 16 -10 15 -12 -1 -2 -20 -17 -41 -26
-36 -5 3 -4 12 3 20 6 8 9 17 5 21 -3 3 -6 1 -6 -6 0 -7 -5 -9 -10 -6 -6 4 -8
10 -6 14 3 4 -1 8 -8 8 -7 0 -13 -6 -13 -13 0 -7 4 -11 8 -8 4 2 10 0 13 -5 3
-5 -1 -12 -9 -15 -10 -4 -19 2 -25 17 -6 16 -9 17 -9 5 -1 -9 -6 -20 -11 -23
-7 -4 -9 3 -6 19 3 14 1 28 -3 31 -5 2 -8 -3 -8 -13 0 -34 -3 -43 -12 -37 -6
3 -8 15 -6 27 3 11 1 17 -3 14 -4 -4 -8 -12 -8 -17 -3 -22 -5 -23 -14 -9 -7
11 -10 11 -10 2 0 -7 -5 -10 -10 -7 -6 4 -7 12 -3 18 4 7 0 6 -10 -2 -9 -7
-17 -20 -17 -28 0 -8 -5 -11 -10 -8 -6 4 -8 10 -5 15 3 5 0 12 -6 16 -7 4 -9
3 -5 -4 3 -6 2 -13 -4 -17 -5 -3 -10 0 -10 7 0 10 -2 10 -9 -1 -14 -22 -44
-24 -37 -3 5 13 2 12 -9 -2 -8 -11 -15 -25 -15 -30 0 -6 5 -4 10 4 9 13 10 13
10 0 0 -13 1 -13 10 0 9 13 10 13 10 0 0 -13 1 -13 11 0 9 13 10 13 6 0 -2 -8
0 -24 5 -35 7 -16 5 -15 -8 3 l-17 23 -26 -23 c-14 -13 -20 -16 -13 -7 16 22
2 33 -15 11 -13 -15 -13 -14 -3 7 9 17 9 26 0 35 -8 8 -10 7 -5 -5 4 -10 0
-16 -10 -16 -10 0 -14 6 -10 16 4 13 3 13 -8 -1 -9 -11 -17 -14 -23 -8 -6 6
-10 2 -11 -12 -2 -18 0 -20 7 -8 8 12 9 10 7 -7 -2 -12 -7 -26 -11 -30 -4 -5
-6 -1 -4 7 2 9 -5 14 -17 14 -12 0 -19 -6 -17 -14 3 -11 0 -11 -12 -1 -9 7
-14 17 -11 21 3 5 1 11 -4 14 -5 4 -12 2 -16 -3 -3 -5 -15 -8 -26 -6 -14 3
-23 -3 -29 -20 -5 -12 -14 -26 -21 -31 -7 -4 -10 -3 -6 2 3 6 2 16 -4 24 -7
12 -9 11 -10 -5 l0 -20 -9 20 c-8 19 -9 19 -9 -2 -1 -12 -5 -24 -10 -27 -5 -4
-7 4 -4 16 6 23 6 23 -14 -1 -14 -17 -22 -21 -27 -12 -4 7 -2 10 5 9 6 -2 14
4 16 12 3 9 1 11 -4 4 -4 -6 -21 -10 -36 -9 -15 1 -30 -2 -33 -7 -3 -4 -10 -5
-16 -2 -7 4 -8 2 -4 -4 4 -7 -3 -10 -21 -9 -23 2 -28 -2 -26 -18 1 -20 1 -20
-13 -1 -13 19 -20 11 -15 -17 1 -5 -3 -6 -9 -2 -6 3 -8 11 -5 16 4 5 1 9 -4 9
-6 0 -11 -6 -11 -12 0 -9 -4 -8 -10 2 -7 11 -10 11 -10 2 0 -7 -4 -10 -10 -7
-5 3 -10 0 -10 -7 0 -9 -3 -9 -10 2 -8 12 -10 12 -11 -5 0 -11 -3 -14 -6 -7
-2 6 -9 12 -14 12 -6 0 -7 -6 -3 -12 5 -10 4 -10 -6 -1 -15 14 -43 5 -33 -11
4 -7 1 -6 -9 2 -12 10 -20 8 -41 -8 -18 -15 -28 -17 -33 -9 -4 7 -3 9 4 5 6
-3 13 -2 16 3 7 11 -13 9 -32 -2 -7 -5 -9 -13 -6 -19 4 -7 2 -8 -5 -4 -6 4 -8
13 -4 19 4 7 -5 4 -19 -5 -18 -12 -29 -14 -33 -7 -5 7 -14 4 -28 -8 -11 -10
-18 -13 -14 -7 4 7 -2 9 -18 6 -15 -2 -22 -9 -18 -16 4 -6 -1 -5 -10 3 -11 8
-17 9 -17 3 0 -7 -7 -9 -17 -5 -10 4 -14 2 -10 -4 4 -6 -3 -8 -18 -5 -14 2
-33 -2 -42 -9 -11 -9 -14 -10 -9 -2 8 15 -19 7 -43 -11 -11 -8 -13 -8 -8 0 9
15 -45 5 -55 -10 -5 -7 -8 -7 -8 2 0 7 -5 10 -11 7 -5 -4 -25 -9 -42 -12 -18
-2 -43 -7 -57 -10 -14 -3 -40 -5 -57 -6 -18 -1 -33 -5 -33 -10 0 -4 -4 -5 -10
-2 -5 3 -15 3 -21 -1 -6 -4 -34 -8 -63 -10 -28 -2 -64 -6 -81 -8 -16 -3 -57
-8 -90 -11 -33 -4 -73 -8 -90 -10 -16 -2 -61 -7 -100 -10 -38 -3 -90 -7 -115
-10 -194 -19 -350 -24 -670 -24 -229 0 -315 3 -490 14 -165 10 -333 25 -362
31 -13 2 -45 7 -73 10 -27 2 -61 7 -75 9 -14 3 -45 7 -70 11 -25 3 -55 7 -67
10 -13 2 -35 6 -50 9 -16 3 -48 10 -73 15 -25 5 -61 12 -81 14 -20 3 -42 8
-50 10 -8 3 -25 7 -39 10 -263 46 -800 238 -1060 378 -75 41 -306 176 -325
190 -5 4 -62 44 -125 89 -195 138 -309 236 -517 446 -583 590 -906 1264 -970
2026 -15 180 -7 716 12 812 2 11 7 43 10 70 3 28 13 91 21 140 8 50 17 104 20
120 21 129 91 394 151 575 80 241 257 661 288 682 5 4 6 8 2 8 -10 0 104 216
211 400 142 244 470 728 520 768 9 6 13 12 9 12 -7 0 26 40 66 82 9 10 14 18
11 18 -4 0 7 14 24 30 18 17 29 30 26 30 -2 0 5 11 18 24 13 12 41 45 63 71
22 27 61 70 87 96 26 26 44 49 41 53 -4 3 2 6 12 6 10 0 16 3 12 6 -3 3 13 25
36 47 23 23 40 46 39 52 -2 5 -1 7 3 3 4 -3 30 17 58 45 29 29 55 51 59 50 4
-2 4 5 1 15 -3 9 -3 14 1 10 4 -3 31 17 59 45 29 29 55 51 59 49 5 -1 7 4 6
10 -2 7 3 12 10 10 6 -1 11 4 10 10 -2 7 3 12 10 10 8 -1 11 1 9 5 -3 5 14 26
36 48 37 36 38 36 12 5 l-30 -35 33 29 c17 17 32 35 32 42 0 7 12 19 28 27 15
7 26 19 24 26 -1 7 1 10 6 7 5 -3 18 8 30 24 12 16 34 35 49 43 16 7 27 19 25
26 -1 7 2 10 8 6 5 -3 10 -1 10 4 0 6 5 11 11 11 5 0 7 -5 3 -12 -4 -7 -3 -8
5 -4 9 6 9 11 1 21 -10 12 -8 13 10 10 18 -4 20 -2 9 11 -10 12 -9 13 6 8 13
-5 16 -4 11 4 -4 7 -1 12 9 12 9 0 13 5 10 10 -3 6 3 10 13 10 12 0 22 9 25
21 4 14 11 20 21 16 11 -4 21 5 32 29 9 19 19 32 22 30 3 -3 -1 -14 -9 -23 -7
-10 0 -6 17 10 17 15 34 24 39 20 4 -5 5 -2 1 5 -6 11 -11 11 -24 0 -12 -9
-11 -6 2 10 14 16 22 19 32 11 10 -8 12 -6 9 11 -3 17 -1 19 9 11 14 -11 26
-5 26 13 0 6 -5 4 -10 -4 -5 -8 -10 -10 -10 -4 0 5 14 23 32 40 17 16 28 23
24 17 -4 -7 -2 -13 3 -13 6 0 11 5 11 11 0 5 4 8 9 5 4 -3 16 3 26 14 10 11
22 17 27 14 6 -4 4 4 -3 17 -11 21 -10 23 3 11 12 -10 18 -9 28 3 7 8 17 12
23 8 6 -4 7 -1 3 6 -6 9 -12 9 -25 -3 -15 -14 -18 -14 -18 -1 0 8 4 12 8 9 4
-2 11 1 14 7 4 5 14 8 22 4 13 -4 14 -3 4 9 -9 11 -9 16 0 22 7 4 9 3 6 -3 -4
-6 0 -13 8 -16 9 -4 12 -1 9 7 -3 8 0 17 5 21 6 3 8 11 5 17 -4 7 -2 8 5 4 9
-6 9 -11 1 -21 -8 -10 -8 -15 1 -21 7 -4 9 -3 5 4 -3 6 -1 14 5 17 5 4 8 13 6
20 -4 8 3 12 16 10 30 -2 40 5 28 19 -8 10 -5 18 11 32 12 10 18 13 14 7 -4
-7 -2 -13 4 -13 6 0 8 -5 4 -11 -5 -8 -9 -8 -14 1 -5 8 -10 8 -14 2 -3 -5 1
-12 9 -15 17 -7 58 41 51 59 -3 7 5 20 17 31 l22 18 -19 -22 c-12 -14 -14 -23
-7 -23 7 0 9 -6 5 -12 -3 -7 10 4 31 25 20 20 41 34 47 31 5 -4 5 3 -2 16 -7
12 -8 20 -2 16 5 -3 12 1 16 9 3 8 10 15 16 15 6 0 4 -7 -4 -16 -14 -14 -14
-34 0 -34 3 0 3 4 0 9 -8 12 19 33 29 23 4 -4 3 3 -4 15 -8 16 -8 24 1 29 6 4
8 3 4 -4 -3 -6 -2 -13 4 -17 5 -3 10 3 10 13 0 22 26 37 36 21 4 -7 17 0 33
15 15 15 31 23 35 19 4 -4 3 5 -3 20 -8 20 -7 26 2 24 7 -1 11 3 10 10 -3 13
22 12 34 -2 4 -4 3 -5 -3 -2 -7 4 -17 0 -24 -9 -10 -12 -11 -17 -1 -27 10 -9
11 -8 5 7 -5 13 -4 17 3 13 6 -4 16 0 23 8 7 8 16 12 21 9 5 -3 8 0 7 8 -2 7
2 12 8 11 13 -2 15 28 2 44 -6 8 -4 11 9 9 10 -2 22 2 26 8 6 7 7 6 4 -4 -2
-8 -9 -14 -15 -13 -7 2 -9 -4 -5 -13 5 -15 7 -15 15 0 5 9 13 14 19 11 10 -7
1 23 -15 45 -10 13 -9 13 8 0 18 -14 19 -13 13 2 -3 10 -2 20 3 23 5 3 7 -8 5
-25 -4 -31 9 -49 21 -29 4 8 3 9 -4 5 -7 -4 -12 -3 -12 2 0 17 13 22 27 10 8
-6 13 -7 11 -2 -1 5 3 19 10 31 6 12 9 30 6 40 -3 10 2 6 11 -9 8 -16 18 -28
21 -28 3 0 3 4 0 8 -11 18 -14 62 -5 68 5 3 6 10 3 16 -4 7 -2 8 5 4 9 -6 9
-11 1 -21 -6 -7 -7 -15 -3 -18 11 -7 33 19 25 29 -4 4 -2 4 5 0 12 -6 28 10
28 29 0 6 6 10 13 10 7 0 17 7 22 15 7 11 10 11 10 2 0 -7 5 -10 10 -7 8 5 7
12 -2 23 -12 16 -11 16 6 2 18 -14 19 -13 13 2 -4 11 -2 17 5 15 7 -1 12 8 13
20 0 12 3 24 6 28 4 3 6 -3 5 -14 0 -11 4 -21 9 -21 6 0 9 9 9 20 -1 15 2 18
11 10 16 -13 28 0 14 16 -7 8 -6 14 2 20 7 4 9 3 5 -4 -3 -6 -2 -13 4 -17 9
-6 14 8 11 28 -1 5 2 6 7 3 13 -8 50 36 47 57 -2 9 0 15 5 12 4 -3 6 -24 4
-47 -5 -45 -14 -65 -14 -29 0 12 -4 20 -10 16 -5 -3 -7 -13 -4 -23 5 -13 4
-14 -4 -3 -12 16 -27 -3 -16 -21 5 -7 3 -8 -6 -3 -9 6 -11 4 -5 -5 6 -9 4 -11
-5 -5 -9 6 -11 4 -5 -5 6 -9 4 -11 -5 -5 -9 6 -11 4 -5 -5 6 -9 4 -11 -5 -5
-9 6 -11 4 -5 -5 6 -9 4 -11 -5 -5 -9 6 -11 4 -5 -5 5 -8 4 -11 -3 -6 -6 3
-15 -2 -21 -11 -8 -13 -10 -14 -11 -4 0 11 -4 9 -14 -4 -8 -11 -12 -23 -9 -28
2 -4 -1 -6 -8 -5 -7 2 -14 -7 -15 -19 -1 -12 2 -20 7 -17 4 2 5 12 2 21 -4 10
-2 14 4 10 6 -4 16 0 23 8 7 8 16 12 21 9 5 -3 9 -2 8 3 -1 4 -1 15 0 23 1 13
2 13 11 0 7 -11 10 -11 10 -2 0 8 5 10 13 6 6 -4 9 -4 5 1 -4 4 -3 14 3 22 9
10 15 11 26 1 8 -6 13 -7 12 -2 -1 5 0 12 1 17 1 4 3 13 4 20 1 6 10 12 21 11
15 -1 20 6 21 25 1 14 4 36 7 48 3 13 0 27 -9 33 -7 7 -12 16 -9 20 9 14 -9
19 -28 9z m3 -63 c0 -2 -8 -10 -17 -17 -16 -13 -17 -12 -4 4 13 16 21 21 21
13z m-170 -140 c0 -2 -8 -10 -17 -17 -16 -13 -17 -12 -4 4 13 16 21 21 21 13z
m-140 -166 c-11 -21 -30 -19 -30 3 0 8 3 8 9 -1 7 -11 9 -11 14 2 4 9 9 16 12
16 3 0 1 -9 -5 -20z m-126 -101 c-9 -11 -20 -17 -23 -14 -3 4 1 10 9 15 8 6
11 10 7 10 -5 0 -5 5 -2 10 4 6 11 8 16 4 6 -4 3 -14 -7 -25z m-105 -84 c-23
-23 -25 -24 -36 -7 -9 15 -8 19 3 19 7 0 10 -5 7 -10 -3 -5 0 -7 8 -5 8 3 13
11 11 17 -1 8 2 9 9 5 9 -5 10 -2 5 12 -6 15 -5 17 6 6 10 -10 8 -17 -13 -37z
m-160 -118 c-8 -7 -22 -21 -33 -32 -18 -20 -18 -20 -2 6 9 14 14 28 11 30 -2
3 5 6 17 6 17 2 18 0 7 -10z m-86 -72 c-7 -21 -12 -19 -10 4 0 11 5 18 9 15 4
-3 5 -11 1 -19z m-229 -174 c3 -4 -3 -16 -13 -25 -15 -14 -21 -15 -27 -4 -4 7
-4 10 1 6 10 -10 37 11 29 23 -3 5 -3 9 0 9 3 0 7 -4 10 -9z m4501 -7883 c-2
-18 -4 -34 -5 -35 -1 -2 -3 -7 -4 -12 0 -5 -4 -12 -8 -16 -3 -4 -5 0 -4 9 1 8
5 19 9 22 4 4 3 12 -3 19 -10 12 -2 57 10 50 4 -2 6 -19 5 -37z m130 18 c18 7
26 -9 13 -26 -8 -12 -9 -12 -4 3 3 9 1 17 -4 17 -6 0 -10 -6 -10 -14 0 -26
-20 -28 -29 -4 -10 27 -3 44 11 30 6 -6 16 -8 23 -6z m-168 -13 c2 -5 -4 -16
-14 -24 -10 -7 -15 -10 -11 -5 4 5 3 17 -2 26 -8 14 -6 18 7 16 9 -2 18 -7 20
-13z m-144 -28 c4 -8 3 -16 -1 -19 -4 -3 -9 4 -9 15 -2 23 3 25 10 4z m-108
-15 c-1 -11 -4 -22 -7 -25 -4 -5 -4 34 1 43 4 8 7 -1 6 -18z m265 16 c0 -2 -8
-10 -17 -17 -16 -13 -17 -12 -4 4 13 16 21 21 21 13z m-313 -28 c-3 -8 -6 -5
-6 6 -1 11 2 17 5 13 3 -3 4 -12 1 -19z m20 0 c-3 -8 -6 -5 -6 6 -1 11 2 17 5
13 3 -3 4 -12 1 -19z m-178 -35 c-6 -7 -15 -10 -20 -7 -13 8 -3 21 15 21 12 0
13 -4 5 -14z m-53 -15 c3 -4 -1 -5 -10 -4 -8 1 -18 5 -22 8 -3 4 1 5 10 4 8
-1 18 -5 22 -8z"/>
<path d="M32617 16239 c4 -13 8 -18 11 -10 2 7 -1 18 -6 23 -8 8 -9 4 -5 -13z"/>
<path d="M29136 25013 c-6 -14 -5 -15 5 -6 7 7 10 15 7 18 -3 3 -9 -2 -12 -12z"/>
<path d="M28855 24790 c-4 -6 -12 -7 -18 -4 -7 4 -9 3 -4 -1 9 -11 -53 -76
-66 -68 -5 3 -4 -4 2 -16 14 -25 23 -28 14 -4 -5 12 -3 14 7 8 9 -6 11 -4 5 5
-6 10 -4 12 8 7 12 -4 14 -2 10 10 -4 10 -2 14 5 9 6 -3 13 -2 17 4 4 6 12 7
18 4 7 -4 9 -4 5 0 -4 5 -3 19 2 32 10 24 6 32 -5 14z m-5 -24 c0 -2 -8 -10
-17 -17 -16 -13 -17 -12 -4 4 13 16 21 21 21 13z"/>
<path d="M28435 24450 c-3 -5 -1 -10 4 -10 6 0 11 5 11 10 0 6 -2 10 -4 10 -3
0 -8 -4 -11 -10z"/>
<path d="M27931 24046 c-9 -11 -9 -16 0 -22 7 -4 9 -3 5 4 -3 5 0 12 6 15 7 2
10 7 7 11 -3 4 -12 0 -18 -8z"/>
<path d="M27554 23708 l-19 -23 25 20 c14 11 27 21 29 22 2 2 0 3 -6 3 -5 0
-18 -10 -29 -22z"/>
<path d="M64638 21698 c-143 -193 -418 -558 -524 -693 -127 -162 -424 -528
-469 -579 -5 -6 -35 -40 -65 -76 -30 -36 -88 -103 -129 -150 -40 -47 -87 -101
-104 -120 -17 -19 -53 -60 -81 -90 -28 -31 -91 -100 -141 -155 -96 -106 -557
-571 -690 -696 -323 -303 -748 -643 -1065 -851 -157 -103 -157 -103 -158 -142
-1 -48 -8 -57 -14 -17 -3 18 0 28 5 24 6 -3 7 -1 3 5 -7 12 -36 5 -36 -9 0 -5
-3 -8 -7 -8 -23 4 -33 -3 -33 -22 0 -12 -4 -17 -11 -13 -8 5 -8 1 0 -13 6 -11
8 -23 5 -25 -2 -3 3 -11 13 -19 15 -12 16 -12 8 1 -5 8 -11 23 -12 34 -3 16
-1 17 12 6 8 -7 13 -16 10 -20 -3 -5 -1 -11 4 -15 6 -3 8 3 6 15 -2 11 0 22 6
25 8 5 13 -7 11 -26 -1 -3 6 -6 14 -6 10 0 11 4 4 11 -23 23 -8 28 17 5 15
-13 22 -17 15 -8 -17 22 -3 32 17 11 9 -10 13 -13 9 -8 -15 19 -8 28 9 15 9
-8 14 -9 11 -4 -4 6 -3 17 3 25 7 13 9 12 9 -2 0 -9 4 -19 9 -22 5 -4 7 4 4
16 -5 23 -5 23 11 3 l16 -20 -7 20 c-6 18 -5 19 13 5 17 -14 18 -14 6 2 -12
16 -10 17 21 14 29 -3 34 -1 29 13 -5 13 -3 14 10 4 18 -15 29 -7 21 14 -5 12
-7 12 -14 1 -6 -9 -8 -6 -6 9 l1 23 26 -25 26 -25 2 27 c1 15 6 31 10 35 5 5
7 -5 6 -22 -1 -16 2 -28 7 -25 4 3 6 12 3 19 -3 9 2 13 17 12 12 0 24 6 26 14
4 13 3 13 -7 0 -10 -13 -11 -13 -7 1 3 9 0 22 -6 29 -7 7 0 5 14 -6 15 -10 24
-23 21 -29 -3 -5 4 -1 16 9 12 11 22 24 22 30 0 6 -5 4 -10 -4 -7 -12 -9 -10
-7 7 1 17 4 19 14 11 12 -10 18 -4 13 17 -1 5 8 1 19 -9 22 -20 30 -9 10 11
-9 9 -8 11 4 9 9 -1 20 -6 24 -11 4 -4 2 -5 -6 0 -10 6 -12 4 -6 -4 5 -9 13
-8 29 7 11 11 28 18 37 17 9 -2 16 3 16 11 0 9 -4 11 -12 4 -8 -7 -12 -5 -12
4 0 15 14 16 35 3 8 -5 15 -2 19 10 12 36 24 44 41 31 13 -11 15 -10 9 4 -7
20 8 34 19 17 5 -8 3 -9 -6 -4 -9 5 -11 4 -6 -3 5 -9 14 -7 31 5 14 10 25 22
25 27 0 5 -10 1 -22 -10 l-23 -19 19 22 c13 16 23 20 31 13 13 -11 50 21 39
33 -4 4 3 4 15 2 14 -3 19 0 15 7 -5 8 -1 9 11 4 16 -6 16 -4 4 10 -13 16 -12
16 11 4 23 -12 24 -12 12 3 -12 14 -11 16 7 12 14 -3 19 0 15 7 -5 8 -1 9 11
4 15 -5 16 -4 6 8 -11 13 -9 15 9 11 16 -3 24 2 27 16 5 16 8 18 14 7 7 -10 9
-9 9 4 0 9 5 20 12 24 7 5 9 2 3 -7 -4 -8 3 -3 16 11 13 14 22 21 19 15 -3 -6
6 1 20 15 14 14 23 21 20 15 -3 -6 6 1 20 15 14 14 21 19 15 10 -6 -10 -2 -9
12 4 13 10 20 22 17 27 -2 4 4 6 15 4 15 -3 18 0 14 13 -3 9 -3 14 2 10 4 -4
14 0 22 10 8 9 11 11 7 3 -5 -9 -3 -12 4 -7 7 4 12 15 12 24 0 15 2 15 10 2 8
-13 10 -13 10 1 0 9 8 23 18 30 16 13 16 12 3 -6 -8 -11 0 -5 17 13 18 18 36
30 42 27 6 -4 7 1 3 12 -3 10 -2 15 2 11 5 -5 14 1 22 12 8 11 20 20 26 20 7
0 23 12 37 28 14 15 21 21 16 12 -5 -8 7 2 27 23 20 20 41 37 47 37 6 0 8 5 5
10 -3 6 -1 10 4 10 6 0 29 19 51 41 22 23 40 38 40 34 0 -4 24 18 54 49 29 31
57 56 61 56 4 0 43 36 85 80 42 44 83 80 89 80 7 0 9 5 6 10 -3 6 2 10 11 10
10 0 15 2 12 5 -3 3 36 46 87 95 51 49 90 92 87 95 -3 3 2 5 12 5 9 0 14 5 11
10 -3 6 1 10 10 10 9 0 13 5 10 10 -3 6 2 10 11 10 10 0 15 3 11 6 -3 3 27 38
66 78 40 40 110 114 157 165 47 52 101 111 120 132 19 21 58 64 85 95 103 118
131 148 162 181 17 18 29 33 27 33 -3 0 5 10 18 23 13 13 39 43 58 67 19 24
49 59 67 77 17 18 29 33 27 33 -2 0 5 10 15 23 11 12 29 32 39 45 11 13 35 42
54 65 18 23 43 52 55 64 12 13 20 23 17 23 -3 0 1 6 8 13 7 8 24 28 38 46 14
18 30 38 36 44 21 24 254 329 340 446 127 172 134 188 129 286 -6 110 -8 125
-14 125 -4 0 -7 11 -7 24 -1 14 -9 38 -17 55 -10 20 -11 29 -4 24 7 -4 5 2 -3
13 -8 10 -15 20 -16 22 -1 2 -27 -29 -56 -70z m-2757 -3291 c-10 -9 -11 -8 -5
6 3 10 9 15 12 12 3 -3 0 -11 -7 -18z m-144 -89 c-3 -8 -6 -5 -6 6 -1 11 2 17
5 13 3 -3 4 -12 1 -19z m-69 -28 c-7 -10 -14 -17 -17 -15 -4 4 18 35 25 35 2
0 -1 -9 -8 -20z m-121 -47 c-4 -3 -1 -13 6 -22 11 -14 10 -14 -5 -2 -16 12
-16 31 -1 31 4 0 3 -3 0 -7z m-100 -66 c1 -11 1 -18 0 -16 -2 2 -8 11 -15 20
-9 12 -9 16 1 16 7 0 14 -9 14 -20z m-162 -17 c-2 -11 0 -22 6 -25 5 -4 9 -1
9 5 0 6 8 10 18 8 12 -2 17 3 16 19 -1 13 3 20 7 17 5 -3 7 -9 4 -14 -3 -5 -1
-11 5 -15 5 -3 10 0 10 7 0 9 3 9 10 -2 8 -12 10 -12 10 -1 0 8 3 12 6 8 3 -3
1 -14 -5 -24 -8 -14 -10 -14 -11 -3 0 13 -1 13 -10 0 -8 -12 -10 -12 -10 -1 0
11 -3 11 -17 0 -9 -8 -25 -14 -35 -14 -10 0 -23 -7 -28 -15 -9 -13 -10 -13
-10 0 0 13 -1 13 -10 0 -8 -13 -10 -12 -10 3 0 9 5 17 11 17 5 0 7 5 4 10 -9
15 -25 2 -25 -20 0 -10 -4 -21 -9 -24 -4 -3 -6 6 -3 19 2 14 9 28 14 31 5 3 3
13 -4 22 -11 15 -11 15 3 5 9 -7 19 -9 23 -5 4 4 6 2 4 -4 -1 -7 2 -12 7 -13
6 0 9 8 9 19 -1 11 2 17 7 15 4 -3 6 -14 4 -25z m-98 -37 c1 -23 0 -24 -6 -9
-7 19 -8 18 -14 -4 -5 -19 -9 -22 -18 -13 -13 13 -4 47 10 38 5 -3 12 -1 16 5
9 15 10 13 12 -17z"/>
<path d="M61151 18114 c0 -11 3 -14 6 -6 3 7 2 16 -1 19 -3 4 -6 -2 -5 -13z"/>
<path d="M43477 19362 c-114 -358 -297 -703 -507 -954 -119 -142 -316 -318
-472 -420 -43 -28 -78 -55 -78 -60 0 -5 -4 -6 -10 -3 -6 4 -7 -1 -3 -11 4 -11
3 -15 -5 -10 -18 11 -23 -11 -5 -25 10 -8 14 -9 10 -2 -4 6 -3 14 3 18 5 3 11
1 11 -4 1 -6 2 -15 3 -20 0 -5 5 -13 9 -18 5 -4 8 -3 7 2 -5 21 1 25 20 15 12
-6 18 -16 14 -23 -4 -7 2 -3 14 7 23 20 30 10 10 -14 -11 -12 -10 -12 5 0 11
8 15 20 12 29 -12 30 -14 52 -4 45 6 -3 8 -8 5 -11 -5 -5 20 -63 27 -63 2 0 3
9 3 19 0 11 -3 18 -7 15 -10 -6 -5 24 6 33 4 4 5 3 1 -4 -3 -6 -2 -14 4 -18 6
-4 8 -10 5 -15 -3 -4 1 -13 8 -19 11 -8 14 -7 14 7 0 9 -4 22 -8 28 -5 7 -3
11 6 11 7 0 14 -3 13 -6 0 -3 0 -13 1 -21 1 -13 3 -13 10 0 6 8 8 17 6 20 -2
4 2 7 10 7 8 0 12 -4 9 -9 -3 -4 0 -8 6 -8 6 0 8 -6 4 -12 -4 -7 2 -4 14 6 12
11 22 16 22 11 0 -4 7 -2 15 5 8 7 15 9 15 5 0 -4 7 -2 15 5 8 7 12 17 8 24
-4 6 0 5 9 -2 13 -10 18 -10 24 -1 5 8 3 9 -6 4 -8 -5 -11 -4 -6 3 4 6 14 8
23 5 11 -4 14 -2 9 5 -4 7 1 10 14 7 12 -2 25 4 34 16 10 15 15 17 19 7 3 -8
6 -6 6 6 1 11 4 17 7 13 3 -3 16 3 27 14 12 11 27 17 34 15 7 -3 15 0 19 6 5
7 2 8 -7 4 -8 -4 -5 -1 5 8 10 8 23 13 29 9 6 -3 7 -1 3 5 -4 7 -3 12 2 12 5
0 21 11 36 25 14 13 26 23 26 21 0 -7 77 62 138 124 114 115 200 238 294 420
127 245 163 368 139 482 -13 68 -90 288 -100 288 -3 0 -14 -26 -24 -58z
m-1043 -1444 c-6 -20 -5 -21 9 -9 9 7 14 18 10 25 -3 6 -2 7 3 3 5 -5 9 -14 9
-20 1 -7 7 -10 15 -9 8 2 12 0 8 -4 -4 -4 -3 -13 3 -20 15 -18 -3 -24 -26 -8
-10 8 -13 14 -6 14 7 0 9 5 5 12 -5 8 -11 6 -19 -6 -11 -14 -13 -15 -19 -1 -3
8 -3 22 0 30 9 24 16 17 8 -7z m249 -13 c-3 -9 -8 -14 -10 -11 -3 3 -2 9 2 15
9 16 15 13 8 -4z m-30 -10 c-3 -9 -8 -14 -10 -11 -3 3 -2 9 2 15 9 16 15 13 8
-4z"/>
<path d="M35372 18333 c-29 -13 -56 -31 -59 -38 -3 -8 -9 -12 -14 -10 -5 3
-11 -6 -15 -20 -3 -14 -11 -22 -17 -18 -6 3 -7 1 -3 -6 4 -6 2 -19 -6 -28 -11
-14 -11 -16 2 -8 13 8 13 6 2 -8 -8 -9 -11 -21 -7 -27 3 -5 0 -10 -7 -10 -9 0
-9 -3 2 -10 8 -5 10 -10 5 -10 -6 0 -11 -9 -12 -20 -1 -12 3 -18 9 -14 6 4 6
-1 -1 -14 -8 -15 -8 -22 2 -25 8 -4 8 -6 -2 -6 -11 -1 -10 -5 5 -17 10 -8 13
-12 5 -8 -10 5 -12 3 -7 -5 9 -14 17 -9 90 60 l49 46 341 -342 c961 -964 1731
-1524 2566 -1868 281 -116 639 -224 915 -277 480 -91 1027 -93 1515 -4 265 48
661 172 825 257 22 12 44 21 48 22 5 0 14 8 21 17 7 10 15 16 17 13 3 -2 5 7
5 20 0 22 -9 26 -12 4 -3 -22 -5 -23 -14 -9 -5 9 -5 19 0 25 7 8 5 12 -5 12
-7 0 -13 -3 -12 -6 1 -3 -4 -16 -11 -29 -7 -12 -10 -27 -7 -32 3 -5 1 -12 -5
-15 -6 -4 -10 -3 -9 2 3 20 -2 34 -10 28 -6 -3 -8 -15 -6 -27 3 -11 1 -18 -2
-14 -4 4 -8 25 -10 49 -5 57 -18 67 -17 11 0 -24 -2 -41 -5 -38 -3 3 -7 10 -7
15 -1 5 -2 12 -3 15 0 4 -7 1 -15 -6 -13 -10 -13 -8 -3 14 10 21 13 23 19 8 5
-13 7 -13 7 -2 0 8 -4 24 -9 35 -8 18 -9 18 -9 2 -1 -10 -6 -15 -11 -12 -6 4
-8 10 -6 14 3 4 -1 8 -9 8 -8 0 -12 -4 -9 -8 2 -4 0 -10 -5 -13 -5 -3 -12 1
-15 10 -5 12 -10 13 -19 5 -9 -7 -17 -7 -25 -1 -7 6 -10 7 -7 4 2 -4 -3 -13
-11 -21 -12 -12 -12 -18 -2 -32 12 -14 11 -15 -6 -1 -20 16 -84 22 -92 8 -9
-15 -23 2 -17 20 5 14 2 13 -11 -3 -10 -11 -15 -15 -12 -9 6 12 -38 13 -50 1
-4 -3 3 -4 15 -2 12 2 19 0 16 -5 -6 -10 -24 -8 -44 4 -11 7 -13 5 -8 -10 7
-18 6 -18 -7 -1 -12 16 -14 16 -20 1 -5 -13 -9 -14 -21 -4 -12 10 -15 10 -15
-1 0 -12 -2 -12 -9 0 -7 11 -9 11 -14 0 -4 -11 -6 -11 -6 0 -1 11 -5 10 -17
-5 -8 -10 -13 -13 -9 -6 3 6 2 12 -2 12 -5 0 -15 -6 -22 -12 -8 -7 -11 -8 -8
-3 3 7 -7 9 -29 7 -22 -3 -32 -8 -27 -16 4 -8 2 -7 -7 1 -8 7 -21 8 -34 4 -11
-5 -31 -7 -43 -6 -13 1 -23 -1 -23 -4 0 -3 -12 -7 -27 -7 -32 -2 -118 -12
-118 -14 0 -1 -25 -3 -55 -5 -30 -2 -98 -7 -150 -11 -126 -11 -675 -11 -770 0
-41 4 -91 9 -110 11 -37 3 -103 12 -159 21 -19 3 -50 8 -70 10 -20 3 -43 6
-51 8 -8 1 -33 6 -55 10 -22 4 -53 12 -70 16 -16 5 -46 11 -66 14 -20 3 -49
10 -65 16 -16 6 -31 11 -34 11 -12 -2 -76 12 -91 20 -9 4 -27 10 -40 13 -67
12 -404 131 -514 181 -27 12 -84 37 -125 55 -232 100 -547 279 -825 468 -114
78 -446 322 -465 342 -3 3 -27 24 -55 45 -27 22 -55 45 -61 50 -19 17 -67 57
-129 110 -33 27 -73 62 -90 77 -16 14 -41 36 -54 47 -159 138 -339 309 -622
591 -136 135 -257 252 -269 262 -32 24 -176 67 -240 72 -43 3 -67 -2 -108 -21z
m6073 -2354 c-5 -7 -14 -4 -26 7 -21 19 -26 6 -7 -16 7 -8 4 -8 -6 2 -17 15
-14 44 4 33 5 -3 12 0 16 6 5 8 10 7 16 -5 5 -9 6 -21 3 -27z m25 -12 c-13
-12 -19 -15 -12 -6 7 9 9 19 6 22 -3 3 -3 11 1 17 5 9 10 9 18 1 8 -8 5 -17
-13 -34z m142 -29 c-13 -13 -24 5 -16 27 7 16 8 16 17 0 6 -11 6 -20 -1 -27z"/>
<path d="M41425 15990 c3 -5 8 -10 11 -10 2 0 4 5 4 10 0 6 -5 10 -11 10 -5 0
-7 -4 -4 -10z"/>
<path d="M61765 18339 c-4 -6 -5 -12 -2 -15 2 -3 7 2 10 11 7 17 1 20 -8 4z"/>
<path d="M61595 18239 c-4 -6 -5 -12 -2 -15 2 -3 7 2 10 11 7 17 1 20 -8 4z"/>
<path d="M34050 18125 c-7 -9 -10 -18 -6 -22 3 -3 6 -1 6 6 0 7 4 10 9 6 5 -3
12 -1 15 4 11 17 -11 21 -24 6z"/>
<path d="M61069 18098 c-6 -20 -6 -39 0 -42 4 -3 7 6 7 20 0 20 -4 32 -7 22z"/>
<path d="M61094 18086 c1 -8 5 -18 8 -22 4 -3 5 1 4 10 -1 8 -5 18 -8 22 -4 3
-5 -1 -4 -10z"/>
<path d="M33470 17795 c-7 -8 -16 -13 -20 -10 -4 3 -11 -2 -14 -11 -3 -8 -10
-13 -15 -9 -15 9 -25 -15 -12 -28 9 -9 10 -7 5 8 -7 18 -6 19 10 6 15 -12 17
-12 14 0 -2 8 3 13 10 12 6 -2 12 2 12 8 0 5 5 7 10 4 6 -4 7 -11 4 -17 -4 -7
-2 -8 5 -4 6 4 9 11 6 16 -3 5 -1 11 5 15 5 3 10 1 10 -6 0 -7 2 -10 5 -7 7 7
-5 38 -15 38 -4 0 -13 -7 -20 -15z"/>
<path d="M33191 17755 c-12 -14 -26 -23 -31 -20 -4 2 -17 -7 -30 -20 -13 -13
-27 -22 -33 -18 -6 4 -7 1 -3 -6 5 -7 10 -10 14 -7 3 3 11 -2 19 -12 13 -15
13 -15 4 5 -7 14 -8 24 -1 28 5 3 11 4 11 1 3 -12 7 -26 9 -33 1 -5 2 -12 1
-16 -1 -5 3 -6 9 -2 8 5 8 11 0 20 -7 9 -6 16 7 26 15 12 16 12 11 -3 -5 -11
-2 -15 10 -13 9 1 26 -5 37 -14 15 -12 17 -13 9 -1 -8 11 -7 22 3 40 l14 25
-4 -28 c-2 -15 -2 -25 1 -22 3 2 12 -1 20 -8 13 -10 14 -9 5 8 -19 36 -37 80
-35 88 4 16 -24 5 -47 -18z m38 -16 c1 8 3 12 6 9 3 -3 1 -16 -4 -30 -10 -27
-37 -33 -46 -10 -4 11 -8 12 -20 2 -8 -7 -15 -10 -15 -6 0 3 0 8 0 11 0 3 3 5
8 6 4 0 12 5 19 11 7 5 17 7 23 3 6 -3 10 4 11 17 1 23 1 23 9 -2 4 -14 8 -19
9 -11z"/>
<path d="M33185 17720 c3 -5 8 -10 11 -10 2 0 4 5 4 10 0 6 -5 10 -11 10 -5 0
-7 -4 -4 -10z"/>
<path d="M33211 17714 c0 -11 3 -14 6 -6 3 7 2 16 -1 19 -3 4 -6 -2 -5 -13z"/>
<path d="M33366 17768 c-11 -36 -13 -57 -5 -52 5 3 9 15 10 27 0 21 1 21 8 2
5 -11 6 -24 3 -29 -3 -5 0 -6 6 -2 8 4 8 15 0 36 -11 33 -17 37 -22 18z"/>
<path d="M33282 17738 c-16 -16 -15 -33 1 -47 11 -8 14 -4 14 24 0 19 -1 35
-2 35 0 0 -6 -5 -13 -12z m5 -30 c-3 -8 -6 -5 -6 6 -1 11 2 17 5 13 3 -3 4
-12 1 -19z"/>
<path d="M33186 17658 c3 -5 10 -6 15 -3 13 9 11 12 -6 12 -8 0 -12 -4 -9 -9z"/>
<path d="M60361 16625 c0 -11 -2 -31 -4 -45 -2 -14 -2 -17 0 -7 2 9 9 15 14
11 5 -3 6 -11 2 -17 -4 -8 -1 -7 9 1 16 13 22 55 7 46 -4 -2 -12 4 -18 13 -9
17 -10 16 -10 -2z m29 -36 c0 -6 -4 -7 -10 -4 -5 3 -10 11 -10 16 0 6 5 7 10
4 6 -3 10 -11 10 -16z"/>
<path d="M60455 16630 c-4 -6 -11 -8 -16 -4 -5 3 -8 0 -7 -8 2 -7 -2 -12 -8
-11 -6 1 -11 -5 -11 -13 0 -10 9 -6 29 13 15 15 28 28 28 30 0 7 -9 2 -15 -7z"/>
<path d="M12705 16601 c-3 -5 -2 -12 3 -15 5 -3 9 1 9 9 0 17 -3 19 -12 6z"/>
<path d="M60207 16547 c-3 -8 -1 -19 5 -25 8 -8 8 -16 -2 -27 -8 -10 -9 -15
-1 -15 6 0 11 5 11 11 0 5 5 7 12 3 7 -5 9 -2 5 8 -3 9 0 21 6 28 9 10 9 11 0
6 -6 -3 -16 1 -21 10 -8 14 -10 14 -15 1z"/>
<path d="M59893 16525 c-3 -9 -3 -18 -1 -21 3 -3 8 4 11 16 6 23 -1 27 -10 5z"/>
<path d="M59991 16524 c0 -11 3 -14 6 -6 3 7 2 16 -1 19 -3 4 -6 -2 -5 -13z"/>
<path d="M59761 16484 c0 -11 3 -14 6 -6 3 7 2 16 -1 19 -3 4 -6 -2 -5 -13z"/>
<path d="M9886 16233 c-3 -4 -6 -152 -6 -330 l0 -323 5175 0 c2846 0 5175 1
5175 3 0 1 -34 37 -75 80 -41 43 -93 107 -116 142 l-42 65 -176 0 c-97 0 -313
3 -481 7 -414 9 -7982 7 -8592 -2 l-487 -7 -51 48 c-27 26 -50 51 -50 57 0 34
-150 220 -200 248 -28 15 -65 21 -74 12z"/>
<path d="M32244 16220 c0 -13 4 -16 10 -10 7 7 7 13 0 20 -6 6 -10 3 -10 -10z"/>
<path d="M32271 16224 c0 -11 3 -14 6 -6 3 7 2 16 -1 19 -3 4 -6 -2 -5 -13z"/>
<path d="M32141 16194 c0 -11 3 -14 6 -6 3 7 2 16 -1 19 -3 4 -6 -2 -5 -13z"/>
<path d="M41548 16016 c3 -6 5 -22 3 -36 -4 -35 6 -21 12 16 3 21 1 31 -9 31
-7 0 -10 -5 -6 -11z"/>
<path d="M41305 16009 c-4 -5 -4 -13 -1 -16 3 -4 6 0 6 8 0 11 2 11 10 -1 6
-9 10 -10 10 -3 0 17 -17 25 -25 12z"/>
<path d="M41341 16004 c0 -11 3 -14 6 -6 3 7 2 16 -1 19 -3 4 -6 -2 -5 -13z"/>
<path d="M41361 16004 c0 -11 3 -14 6 -6 3 7 2 16 -1 19 -3 4 -6 -2 -5 -13z"/>
<path d="M41276 15993 c-6 -14 -5 -15 5 -6 7 7 10 15 7 18 -3 3 -9 -2 -12 -12z"/>
<path d="M41576 15995 c-3 -9 -6 -22 -5 -28 0 -7 5 -1 10 12 5 13 8 26 5 28
-2 2 -6 -3 -10 -12z"/>
<path d="M6700 11200 l0 -280 31676 0 31677 0 -77 76 c-42 43 -76 81 -76 85 0
5 -24 26 -53 47 l-53 39 -31349 1 c-17243 0 -31355 1 -31361 1 -23 2 -234 220
-234 243 0 6 -2 9 -6 6 -3 -3 -21 10 -41 28 -26 25 -45 34 -69 34 l-34 0 0
-280z"/>
<path d="M52831 9202 c-49 -60 -65 -104 -65 -182 0 -64 4 -83 29 -129 57 -104
162 -157 292 -149 113 8 113 1 -2 178 -23 36 -55 89 -70 118 -28 52 -112 155
-145 179 -14 10 -21 8 -39 -15z"/>
<path d="M47430 8401 l0 -330 -41 -3 c-37 -3 -42 -6 -54 -40 -7 -21 -11 -40
-9 -43 2 -3 1 -3 -2 -1 -3 3 -15 -4 -26 -14 -19 -18 -22 -17 -128 20 -60 21
-112 35 -115 32 -3 -3 -5 0 -5 7 0 7 -4 9 -10 6 -5 -3 -10 -2 -10 2 0 13 -61
33 -98 33 l-32 0 0 -165 0 -165 265 0 265 0 0 -962 c0 -1056 1 -1079 59 -1236
89 -244 263 -398 530 -470 85 -23 116 -25 276 -26 145 -1 195 3 255 18 41 10
80 23 86 27 6 5 14 6 17 2 4 -3 7 -1 7 5 0 7 -5 12 -12 12 -6 0 -20 8 -31 18
-15 12 -19 13 -13 2 4 -8 1 -7 -8 4 -8 10 -20 15 -27 10 -7 -4 -10 -3 -6 3 4
6 -5 15 -19 22 -19 8 -24 8 -18 0 5 -8 3 -9 -7 -3 -7 4 -52 9 -99 10 -264 4
-423 65 -581 223 -73 73 -94 101 -133 183 -30 61 -55 132 -69 195 -21 96 -22
116 -22 873 0 426 4 848 8 938 9 167 8 173 -30 259 -48 110 -57 190 -29 257 8
20 13 36 11 36 -3 0 0 11 5 24 42 110 20 329 -46 476 -31 68 -51 90 -81 90
l-23 0 0 -329z"/>
<path d="M8950 6015 l0 -2055 151 0 c83 0 149 3 147 8 -49 98 -53 106 -88 237
l-29 110 0 455 c0 543 3 571 77 715 48 93 51 101 47 164 -2 36 -19 133 -39
214 -66 280 -86 455 -80 699 2 86 6 171 8 190 3 18 8 60 11 93 4 33 20 130 37
215 23 115 32 183 32 265 0 118 7 91 -102 435 -20 63 -37 121 -38 127 -5 28
-39 110 -61 146 -17 27 -30 37 -48 37 l-25 0 0 -2055z"/>
<path d="M16000 6570 l0 -1500 150 0 c83 0 150 2 150 4 0 3 -9 20 -20 39 -27
45 -64 155 -85 249 -15 68 -16 146 -12 760 4 726 5 742 58 1008 16 81 23 152
23 240 1 135 -8 177 -91 400 -19 52 -36 101 -38 110 -8 35 -37 107 -61 147
-19 32 -31 43 -49 43 l-25 0 0 -1500z"/>
<path d="M28150 6015 l0 -2055 150 0 150 0 -29 52 c-24 45 -52 123 -66 188
-38 172 -37 161 -32 625 6 509 7 518 82 667 57 110 58 149 10 348 -70 292 -79
368 -80 655 0 277 5 329 56 595 40 204 38 307 -10 460 -18 58 -46 150 -63 205
-58 193 -97 291 -122 307 -6 4 -19 8 -28 8 -17 0 -18 -104 -18 -2055z"/>
<path d="M41820 6570 l0 -1500 151 0 c83 0 149 3 147 8 -2 4 -16 31 -31 60
-15 28 -41 105 -58 170 l-30 117 4 690 c3 380 8 713 12 740 4 28 18 115 31
195 14 80 30 174 36 210 21 130 -5 296 -74 465 -11 27 -33 88 -48 135 -30 94
-60 161 -75 172 -5 4 -6 8 -1 8 21 0 -19 30 -40 30 l-24 0 0 -1500z"/>
<path d="M52860 6570 l0 -1500 150 0 c86 0 150 4 150 9 0 5 -7 16 -15 25 -9 8
-16 18 -15 21 0 3 -7 22 -16 43 -9 20 -29 88 -45 151 l-29 113 0 1132 c-1
1158 0 1133 -35 1296 -11 48 -46 135 -71 173 -17 26 -31 37 -49 37 l-25 0 0
-1500z"/>
<path d="M16781 7923 c-13 -3 -26 -14 -29 -25 -4 -15 -7 -17 -13 -6 -7 10 -9
9 -9 -4 0 -10 6 -18 13 -19 6 0 3 -4 -8 -9 -11 -5 -14 -9 -6 -9 10 -1 11 -4 2
-15 -8 -9 -8 -16 -2 -20 6 -4 7 -14 4 -23 -4 -10 -2 -14 4 -10 7 4 9 0 6 -11
-2 -10 5 -29 16 -43 17 -20 20 -21 21 -6 0 9 5 17 11 17 5 0 7 5 4 10 -3 6 -1
10 5 10 6 0 8 5 5 10 -3 6 -1 10 6 10 9 0 9 3 0 14 -9 11 -9 16 0 22 8 5 9 3
4 -7 -8 -12 -6 -12 8 0 18 14 23 26 7 16 -6 -4 -8 13 -6 44 2 28 0 48 -5 45
-5 -3 -6 -16 -3 -29 3 -12 2 -25 -3 -28 -5 -3 -8 12 -8 34 0 21 0 38 0 38 0
-1 -11 -4 -24 -6z"/>
<path d="M42604 7914 c3 -8 -2 -10 -16 -6 -17 4 -20 2 -15 -11 4 -11 2 -14 -9
-10 -10 4 -12 0 -7 -13 4 -10 2 -15 -3 -11 -5 3 -9 -10 -8 -31 3 -53 3 -54 13
-48 5 4 7 -2 4 -12 -2 -10 5 -29 16 -43 17 -20 20 -21 21 -6 0 9 5 17 11 17 5
0 7 5 4 10 -3 6 -2 10 4 10 5 0 8 9 6 20 -2 11 0 18 6 15 5 -4 10 3 10 14 2
33 4 39 11 46 4 4 3 16 -3 27 -5 10 -7 24 -3 30 4 7 3 8 -5 4 -7 -4 -9 -17 -6
-29 5 -20 5 -20 -5 -4 -7 10 -9 24 -7 31 3 7 -1 13 -9 13 -8 0 -13 -6 -10 -13z
m41 -54 c-3 -5 -12 -10 -18 -10 -7 0 -6 4 3 10 19 12 23 12 15 0z"/>
<path d="M64224 7871 c-230 -161 -334 -359 -335 -634 0 -181 27 -294 98 -405
66 -105 218 -226 341 -272 174 -66 398 -123 662 -170 176 -31 430 -92 536
-130 141 -49 251 -145 290 -251 23 -64 20 -199 -5 -271 -31 -89 -95 -171 -178
-228 l-22 -15 31 -35 c17 -19 27 -28 23 -20 -6 12 -5 12 9 -1 21 -19 61 -9
118 30 70 49 160 201 188 320 17 73 8 201 -20 273 -36 96 -114 195 -201 253
-127 87 -280 135 -674 210 -344 66 -496 109 -636 181 -175 90 -313 257 -350
423 -16 71 -13 189 6 266 16 64 65 172 144 318 17 32 29 62 26 68 -4 5 1 12 9
15 12 5 13 11 6 24 -7 13 -6 21 2 26 6 4 8 3 4 -4 -3 -6 -2 -13 3 -16 5 -4 8
2 6 11 -1 10 1 25 6 34 5 10 3 23 -4 33 -11 15 -19 12 -83 -33z m79 2 c-3 -8
-6 -13 -7 -11 -1 2 -8 12 -16 22 -10 13 -10 17 -2 12 7 -4 12 -2 12 6 0 10 2
10 9 -1 5 -8 7 -20 4 -28z"/>
<path d="M9795 7900 c6 -10 4 -12 -9 -7 -19 8 -86 -27 -86 -44 0 -6 -4 -8 -8
-5 -5 3 -9 -1 -9 -9 0 -8 3 -12 7 -10 3 2 5 -14 4 -36 -1 -21 3 -39 8 -39 5 0
6 -4 3 -10 -3 -5 -1 -10 5 -10 6 0 8 -5 4 -12 -4 -7 -3 -8 4 -4 7 4 12 13 12
20 0 8 11 21 25 30 21 14 23 20 15 44 -9 24 -9 25 4 9 12 -16 14 -16 20 -2 3
9 2 14 -2 11 -4 -3 -13 4 -20 14 -7 12 -8 21 -2 25 6 4 8 11 5 16 -3 5 1 6 10
2 13 -5 14 -7 3 -14 -10 -7 -10 -9 2 -9 13 0 13 -1 0 -11 -12 -9 -13 -10 0 -7
16 5 22 56 7 65 -6 4 -7 1 -2 -7z m-30 -109 c3 -5 2 -12 -3 -15 -5 -3 -9 1 -9
9 0 17 3 19 12 6z"/>
<path d="M28974 7902 c5 -9 3 -12 -5 -10 -18 4 -91 -41 -84 -52 3 -5 1 -11 -5
-15 -7 -4 -7 -12 0 -24 5 -10 6 -21 3 -25 -3 -3 0 -6 8 -6 11 0 11 -2 -1 -10
-10 -6 -11 -10 -2 -10 6 0 12 -7 12 -15 0 -38 50 7 51 46 0 22 1 23 9 4 7 -16
9 -13 9 16 1 19 -4 40 -9 45 -7 7 -6 11 4 11 8 0 15 -3 14 -6 0 -3 0 -13 1
-21 1 -13 2 -13 11 0 6 10 4 21 -8 34 -9 11 -12 16 -6 13 7 -4 18 1 25 11 7 9
9 14 5 10 -5 -4 -16 -2 -24 5 -13 10 -14 9 -8 -1z"/>
<path d="M35603 7884 c-5 -13 -7 -13 -14 -2 -7 10 -9 11 -9 0 0 -7 -3 -11 -8
-8 -12 7 -130 -78 -218 -158 -86 -79 -194 -215 -257 -323 -111 -192 -187 -444
-206 -683 -35 -458 98 -866 387 -1190 194 -216 488 -376 821 -447 116 -25 145
-27 356 -27 180 0 251 3 324 17 111 21 273 71 317 98 17 10 33 16 36 14 3 -3
11 2 19 12 12 14 12 16 0 8 -11 -6 -13 -4 -8 9 4 10 3 15 -3 11 -6 -3 -10 0
-10 7 0 9 -3 9 -10 -2 -13 -20 -12 -39 1 -20 7 10 9 11 7 2 -5 -21 -23 -14
-23 8 0 11 -5 20 -10 19 -6 0 -9 -8 -7 -17 1 -11 -4 -8 -13 8 -11 17 -14 19
-10 6 6 -19 5 -19 -13 -3 -14 13 -21 14 -30 5 -8 -8 -12 -9 -12 -1 0 6 -9 9
-20 6 -11 -3 -17 -10 -13 -17 5 -8 3 -8 -8 0 -8 6 -23 10 -34 8 -11 -2 -40 -6
-65 -9 -25 -2 -64 -7 -87 -10 -24 -3 -62 -7 -85 -10 -59 -7 -323 -6 -378 0
-252 31 -521 137 -711 280 -216 162 -404 425 -460 643 -20 77 -26 212 -13 262
16 60 13 225 -6 310 -27 123 -22 268 14 375 36 106 113 266 171 357 44 68 154
216 183 246 6 7 12 18 12 23 0 6 5 7 12 3 6 -4 8 -3 4 4 -3 6 -2 13 4 17 6 4
7 11 4 17 -4 7 -2 8 4 4 7 -4 12 -1 12 8 0 9 3 15 8 15 19 -3 22 3 11 24 -12
21 -11 21 6 7 11 -9 16 -10 11 -3 -12 21 -16 54 -5 48 5 -4 7 -10 4 -15 -3 -5
-1 -11 4 -14 5 -4 8 2 6 11 -2 10 -4 24 -4 31 -1 7 -6 10 -13 6 -7 -5 -8 -3
-3 6 6 10 11 9 23 -6 9 -12 12 -13 9 -4 -2 8 0 23 5 33 5 9 6 17 3 17 -3 0 -8
-7 -12 -16z m1441 -2670 c3 -8 2 -12 -4 -9 -6 3 -10 10 -10 16 0 14 7 11 14
-7z"/>
<path d="M57969 7885 c-2 -23 -4 -29 -12 -42 -4 -6 -3 -14 3 -18 5 -3 10 1 10
10 0 10 5 13 12 9 7 -5 8 -3 2 7 -5 8 -7 22 -6 32 2 9 1 17 -2 17 -3 0 -7 -7
-7 -15z"/>
<path d="M10445 7879 c-61 -6 -115 -15 -150 -23 -5 -2 -23 -6 -40 -10 -85 -22
-169 -59 -193 -86 -12 -13 -13 -13 -7 0 4 8 -3 4 -15 -10 -12 -14 -18 -19 -14
-11 5 10 3 12 -5 7 -7 -5 -10 -14 -7 -22 3 -8 0 -11 -9 -8 -16 6 -35 -25 -27
-45 3 -9 0 -11 -8 -6 -8 5 -11 4 -7 -3 7 -10 19 -10 47 1 44 17 184 57 240 68
105 20 348 16 460 -8 211 -46 379 -135 531 -283 166 -162 273 -359 326 -602
25 -116 25 -418 0 -535 -35 -161 -97 -315 -183 -449 -50 -77 -170 -201 -243
-249 -33 -22 -63 -48 -67 -58 -3 -9 -10 -15 -15 -12 -15 10 -10 -2 8 -16 9 -8
14 -9 11 -4 -4 6 -3 17 3 25 7 12 9 9 9 -10 0 -19 2 -22 9 -10 6 8 7 18 4 24
-3 5 -1 6 5 2 6 -4 9 -13 6 -20 -3 -7 3 -19 12 -27 10 -8 15 -9 11 -2 -6 9 2
11 28 9 23 -3 33 0 28 7 -4 6 0 8 10 4 10 -3 17 -2 17 3 0 6 3 9 8 9 15 -3 72
23 72 34 0 6 3 8 6 4 4 -3 12 -1 19 6 7 7 28 23 45 37 164 125 309 395 371
690 29 137 31 387 5 530 -57 319 -231 619 -458 793 -251 193 -551 283 -843
256z m-442 -182 c3 -8 -1 -14 -8 -14 -7 0 -11 6 -8 14 3 7 6 13 8 13 2 0 5 -6
8 -13z"/>
<path d="M21803 7883 c6 -9 -16 -21 -46 -27 -25 -4 -182 -134 -262 -217 -287
-300 -430 -696 -412 -1144 26 -646 416 -1175 1012 -1374 154 -51 274 -71 460
-78 190 -6 292 3 455 43 86 22 222 67 239 80 8 7 -22 34 -30 28 -5 -3 -8 0 -7
7 2 7 -2 13 -9 14 -19 0 -37 22 -19 22 8 0 13 -4 10 -8 -2 -4 5 -6 16 -4 13 3
18 0 14 -7 -5 -7 -2 -8 5 -4 12 8 7 20 -10 22 -5 1 -10 2 -11 4 -12 9 -39 6
-49 -6 -9 -12 -14 -11 -32 1 -15 11 -24 12 -34 3 -7 -6 -13 -7 -13 -2 0 5 -5
2 -10 -6 -7 -11 -10 -11 -10 -2 0 7 -4 11 -8 8 -5 -3 -22 -7 -38 -10 -16 -3
-45 -8 -64 -11 -19 -4 -48 -9 -65 -11 -16 -3 -100 -8 -185 -11 -309 -11 -575
63 -828 230 -297 196 -499 507 -579 887 -27 130 -24 421 5 557 40 184 116 370
212 517 71 108 227 315 234 309 3 -3 3 4 1 16 -3 14 0 19 7 15 7 -5 9 -2 6 8
-4 8 2 22 13 32 11 9 17 22 13 28 -5 7 -2 9 9 5 9 -3 19 -2 22 4 4 5 3 9 -2 8
-4 -1 -15 -1 -23 1 -11 1 -9 4 5 9 21 8 29 57 12 68 -6 3 -7 1 -4 -4z m4 -29
c-3 -3 -12 -4 -19 -1 -8 3 -5 6 6 6 11 1 17 -2 13 -5z m0 -20 c-3 -3 -12 -4
-19 -1 -8 3 -5 6 6 6 11 1 17 -2 13 -5z"/>
<path d="M29645 7878 c-114 -9 -208 -29 -295 -64 -3 -1 -15 -5 -27 -9 -13 -4
-23 -12 -23 -17 0 -5 -4 -7 -8 -4 -5 3 -18 -3 -29 -14 -12 -10 -24 -16 -27
-13 -3 4 -6 2 -6 -4 0 -6 -9 -13 -20 -16 -11 -3 -20 -13 -20 -22 0 -9 5 -13
10 -10 16 10 11 -1 -7 -16 -10 -8 -14 -9 -10 -2 4 6 2 15 -4 19 -7 4 -9 3 -5
-4 3 -6 2 -14 -4 -17 -19 -12 9 -36 28 -25 25 14 178 57 243 69 107 19 252 23
354 11 505 -61 871 -414 971 -936 22 -119 23 -348 0 -474 -54 -303 -217 -578
-428 -724 -49 -33 -56 -42 -52 -65 3 -19 2 -22 -5 -11 -5 8 -7 18 -5 22 3 4 1
8 -4 8 -6 0 -13 -7 -16 -16 -3 -8 -2 -12 4 -9 10 6 15 -9 10 -30 -1 -5 4 -4
11 2 10 10 17 9 33 -5 11 -9 16 -12 12 -5 -5 9 3 11 29 9 19 -2 32 0 29 5 -4
8 25 14 49 10 4 0 7 4 7 11 0 6 3 9 6 5 10 -10 118 68 178 127 99 99 211 292
265 456 82 252 93 552 30 805 -151 606 -680 1002 -1274 953z m677 -2352 c7 4
8 2 4 -5 -9 -13 -26 -5 -25 12 0 9 2 8 6 -1 2 -6 10 -9 15 -6z"/>
<path d="M57950 7880 c0 -5 -6 -10 -13 -10 -26 0 -182 -127 -269 -218 -300
-316 -449 -793 -397 -1270 78 -723 613 -1248 1359 -1333 149 -17 426 -6 555
21 117 25 281 77 300 96 7 7 15 10 19 7 3 -4 6 4 6 16 0 15 4 20 13 15 8 -5 8
-2 -2 9 -15 18 -26 23 -16 7 3 -5 -1 -10 -10 -10 -9 0 -14 4 -11 9 4 5 -2 8
-11 7 -10 -2 -21 2 -25 8 -5 8 -8 7 -8 -2 0 -9 -6 -10 -17 -4 -10 4 -27 7 -38
5 -27 -3 -90 -11 -145 -17 -25 -3 -56 -8 -70 -10 -70 -14 -449 -23 -469 -12
-3 2 -31 7 -61 10 -89 10 -272 63 -372 107 -302 133 -531 346 -673 629 -51
101 -73 167 -87 265 -10 70 -9 98 6 194 19 119 17 175 -10 306 -38 179 -6 352
107 578 32 64 125 211 163 259 11 14 32 41 46 59 14 18 33 41 42 50 9 10 14
20 11 23 -4 3 -1 6 5 6 7 0 12 7 12 15 0 9 7 18 15 21 8 4 12 11 8 17 -4 6 0
8 9 4 12 -4 15 0 13 19 -1 13 2 27 7 30 4 3 5 10 2 16 -4 7 -2 8 5 4 9 -6 9
-12 -1 -24 -9 -12 -6 -11 10 2 12 11 22 21 22 24 0 3 -3 2 -7 -1 -9 -10 -32
26 -25 38 8 13 13 45 7 45 -3 0 -5 -4 -5 -10z m1471 -2667 c12 -16 12 -17 -2
-6 -9 7 -20 9 -24 5 -5 -4 -5 -1 -1 6 9 16 11 15 27 -5z m78 -20 c2 -1 -5 -1
-16 0 -11 0 -20 7 -20 14 0 10 4 10 16 1 9 -7 18 -13 20 -15z"/>
<path d="M22578 7875 c-2 -1 -25 -6 -53 -9 -95 -13 -123 -20 -196 -48 -33 -13
-59 -27 -59 -31 0 -5 -4 -5 -10 -2 -5 3 -10 1 -10 -6 0 -7 -3 -9 -7 -6 -3 4
-12 -1 -20 -11 -10 -11 -12 -12 -8 -2 4 8 -3 4 -15 -10 -12 -14 -18 -19 -14
-11 5 10 3 12 -5 7 -7 -5 -10 -14 -7 -22 3 -8 0 -11 -8 -8 -7 3 -19 -2 -26
-11 -7 -8 -9 -15 -4 -15 5 0 4 -4 -3 -8 -8 -5 -9 -13 -3 -22 8 -13 10 -12 11
3 3 30 4 35 11 42 4 4 5 -4 2 -19 -2 -14 -3 -26 -1 -26 2 0 35 11 73 24 333
116 718 72 1006 -116 258 -168 409 -404 475 -743 26 -136 24 -406 -5 -542 -40
-187 -104 -336 -199 -462 -69 -92 -160 -181 -236 -231 -32 -21 -58 -42 -57
-46 3 -16 33 -44 41 -38 5 3 7 10 3 15 -3 5 -10 6 -16 3 -7 -5 -8 -2 -3 6 6 9
4 11 -5 5 -9 -5 -11 -4 -6 4 6 8 12 9 20 2 7 -6 17 -7 21 -3 5 4 5 1 1 -5 -4
-8 -2 -13 5 -13 8 0 7 -5 -2 -17 -13 -16 -12 -17 3 -5 9 8 22 11 27 8 5 -4 12
-2 16 4 9 15 27 12 20 -2 -4 -7 1 -4 9 6 9 12 16 14 16 7 0 -9 5 -8 16 3 8 9
20 16 26 16 21 0 136 90 190 148 223 242 339 630 307 1027 -39 478 -298 860
-713 1055 -115 54 -173 72 -301 95 -74 13 -296 20 -307 10z"/>
<path d="M36320 7877 c-3 -3 -30 -7 -62 -10 -68 -8 -248 -64 -248 -78 0 -6 -4
-7 -10 -4 -5 3 -10 1 -10 -5 0 -6 -4 -8 -10 -5 -5 3 -10 1 -10 -4 0 -6 -7 -11
-15 -11 -8 0 -19 -9 -25 -20 -6 -11 -17 -20 -26 -20 -12 0 -13 -4 -3 -22 10
-20 10 -21 -2 -11 -11 9 -14 7 -14 -11 0 -17 4 -21 15 -15 29 16 136 47 210
62 250 51 520 21 739 -84 232 -110 415 -317 506 -572 35 -97 65 -233 65 -293
l0 -33 -67 -3 c-59 -3 -68 -6 -71 -23 -13 -73 -60 -111 -168 -139 -54 -14
-155 -16 -752 -16 -688 0 -689 0 -743 -22 -30 -12 -57 -26 -60 -31 -3 -5 -9
-8 -13 -8 -3 1 -19 -10 -34 -24 l-27 -25 1093 0 c600 0 1092 3 1092 6 0 3 -24
30 -54 60 -30 30 -64 76 -77 102 -25 52 -28 114 -14 292 9 113 -5 179 -64 305
-190 405 -582 657 -1034 664 -56 1 -105 0 -107 -2z"/>
<path d="M58690 7877 c-3 -3 -31 -8 -63 -11 -32 -4 -70 -11 -85 -17 -15 -6
-28 -10 -29 -10 -2 1 -4 1 -5 0 -2 0 -11 -2 -20 -4 -53 -10 -247 -125 -212
-125 5 0 3 -4 -5 -9 -8 -5 -16 -20 -18 -33 -2 -18 -1 -20 7 -8 5 8 10 12 10 9
0 -4 35 4 78 18 276 88 582 79 835 -27 311 -129 538 -428 602 -794 23 -134 26
-126 -54 -126 -68 0 -69 0 -74 -30 -4 -16 -14 -41 -23 -56 -17 -26 -89 -67
-140 -81 -16 -4 -353 -10 -749 -13 -712 -5 -721 -5 -765 -27 -25 -12 -63 -35
-84 -52 l-39 -31 1099 0 1099 1 -36 33 c-20 18 -39 41 -42 50 -4 9 -11 16 -16
16 -6 0 -24 30 -42 67 -35 73 -41 143 -20 233 25 107 3 227 -67 373 -192 398
-556 637 -997 654 -77 3 -142 3 -145 0z m-400 -193 c0 -8 -19 -13 -24 -6 -3 5
1 9 9 9 8 0 15 -2 15 -3z"/>
<path d="M64935 7868 c-27 -4 -61 -10 -75 -12 -56 -9 -91 -19 -96 -27 -3 -5
-14 -9 -25 -9 -10 0 -19 -3 -19 -8 0 -4 -12 -13 -28 -19 -42 -19 -92 -65 -97
-90 -4 -24 -11 -25 110 6 44 11 121 25 170 30 111 12 364 7 465 -9 197 -31
391 -96 530 -180 44 -26 82 -45 85 -42 10 11 5 43 -12 70 -44 68 -175 176
-263 216 -147 67 -550 107 -745 74z m-295 -122 c0 -2 -8 -10 -17 -17 -16 -13
-17 -12 -4 4 13 16 21 21 21 13z"/>
<path d="M48162 7855 c-18 -8 -35 -14 -38 -14 -25 4 -108 -48 -131 -81 -14
-20 -10 -20 297 -20 208 0 309 3 305 10 -4 6 -11 8 -16 5 -5 -4 -9 -1 -9 4 0
6 -4 11 -9 11 -5 0 -48 22 -97 50 -89 49 -89 50 -179 49 -55 0 -103 -5 -123
-14z"/>
<path d="M17101 7797 c-6 -6 -11 -8 -11 -3 0 7 -111 -51 -120 -63 -3 -4 -13
-10 -22 -14 -10 -3 -18 -14 -18 -22 0 -10 5 -13 13 -9 9 6 9 4 -1 -8 -9 -11
-10 -18 -2 -23 6 -3 8 -11 4 -16 -9 -15 -23 0 -19 21 2 11 -2 23 -8 26 -7 4
-9 4 -5 -1 4 -4 3 -14 -3 -21 -7 -8 -7 -14 1 -19 6 -3 8 -10 5 -15 -8 -13 33
-5 122 23 88 28 185 47 246 47 38 0 50 16 20 27 -10 3 -52 22 -93 41 -89 42
-95 43 -109 29z"/>
<path d="M42922 7798 c-7 -7 -12 -9 -12 -4 0 10 -81 -35 -98 -54 -12 -13 -13
-13 -7 0 4 8 -1 6 -9 -4 -9 -11 -16 -16 -16 -10 0 5 -9 -9 -19 -31 -11 -22
-20 -36 -20 -32 -1 5 4 17 9 28 6 10 8 19 6 19 -3 0 -13 -14 -22 -31 -8 -17
-11 -28 -6 -25 6 4 13 2 17 -4 4 -6 11 -7 17 -4 6 4 8 2 4 -4 -3 -6 -16 -9
-27 -7 -17 3 -19 1 -9 -10 9 -11 17 -11 48 2 71 30 208 64 285 70 43 3 80 9
82 13 3 4 -17 15 -43 25 -26 10 -73 31 -104 46 -67 34 -61 32 -76 17z"/>
<path d="M63842 5524 c-34 -63 -60 -120 -56 -125 10 -17 132 -93 219 -136 169
-85 384 -152 625 -195 108 -19 160 -23 375 -22 262 0 357 10 525 55 147 39
225 82 188 105 -7 4 -8 3 -4 -4 4 -7 2 -12 -4 -12 -6 0 -9 -4 -6 -8 3 -5 -1
-9 -9 -9 -8 0 -13 5 -12 11 1 6 -3 10 -8 9 -6 -1 -12 7 -12 18 -2 18 0 18 17
-3 11 -13 19 -19 20 -15 0 4 -9 17 -20 29 -11 12 -20 18 -20 12 0 -5 -5 -2
-11 6 -9 13 -10 12 -5 -2 3 -10 0 -20 -7 -24 -7 -4 -9 -4 -5 1 4 4 4 13 -2 20
-12 15 -82 7 -73 -9 4 -7 2 -7 -7 1 -8 7 -19 9 -29 4 -9 -5 -26 -7 -38 -6 -13
1 -23 -2 -23 -7 0 -4 -3 -7 -7 -6 -7 1 -58 -5 -138 -18 -57 -9 -341 -12 -425
-4 -243 23 -521 90 -661 160 -93 47 -214 153 -280 244 -18 26 -35 46 -38 46
-3 -1 -34 -53 -69 -116z"/>
<path d="M9440 5530 c-10 -6 -11 -10 -2 -10 6 0 12 -6 12 -14 0 -22 184 -192
267 -247 146 -95 332 -169 508 -201 108 -20 458 -17 567 5 119 24 253 63 308
91 43 22 54 26 65 26 3 0 -1 10 -10 23 -8 13 -12 27 -8 32 5 4 2 5 -5 1 -9 -5
-9 -13 -1 -29 9 -19 8 -20 -3 -6 -7 9 -21 15 -30 13 -11 -1 -15 3 -11 13 4 10
8 11 13 3 5 -8 9 -7 13 4 4 9 3 15 -1 15 -4 -1 -9 0 -12 1 -18 8 -67 6 -79 -4
-11 -8 -13 -8 -7 2 4 7 1 12 -9 12 -10 0 -13 -5 -9 -12 6 -10 5 -10 -7 -1 -12
10 -18 10 -29 0 -10 -10 -11 -9 -5 2 5 9 4 12 -3 7 -14 -9 -44 -15 -95 -21
-21 -2 -41 -6 -45 -9 -7 -4 -49 -12 -127 -23 -16 -2 -86 -6 -155 -8 -272 -8
-524 65 -752 218 -66 44 -231 112 -298 122 -19 3 -42 1 -50 -5z m1660 -285 c0
-2 -6 -8 -13 -14 -10 -8 -14 -7 -14 2 0 8 6 14 14 14 7 0 13 -1 13 -2z"/>
<path d="M28637 5525 c-9 -22 156 -185 256 -253 99 -68 258 -144 369 -176 313
-90 702 -71 1019 51 61 23 74 33 75 51 1 12 -1 20 -4 17 -8 -7 -33 16 -27 25
3 5 -3 7 -12 5 -10 -1 -24 2 -30 8 -7 5 -13 6 -13 2 0 -4 -8 -1 -17 6 -9 8
-14 9 -10 3 4 -7 0 -15 -9 -18 -8 -3 -12 -2 -9 4 9 14 -8 12 -24 -2 -11 -10
-13 -10 -7 0 7 12 -6 17 -17 6 -3 -3 -25 -8 -49 -10 -43 -4 -52 -5 -98 -17
-151 -38 -430 -42 -587 -8 -171 36 -314 95 -448 186 -71 48 -248 122 -315 131
-28 4 -39 2 -43 -11z m1713 -339 c0 -6 -5 -4 -10 4 -5 8 -10 11 -10 6 0 -5 -9
-1 -20 9 -11 10 -17 22 -14 27 7 11 54 -30 54 -46z"/>
<path d="M30300 5226 c0 -2 8 -10 18 -17 15 -13 16 -12 3 4 -13 16 -21 21 -21
13z"/>
<path d="M65601 5477 c2 -1 13 -9 24 -17 19 -14 19 -14 6 3 -7 9 -18 17 -24
17 -6 0 -8 -1 -6 -3z"/>
<path d="M23254 5223 c5 -8 1 -13 -10 -13 -16 0 -16 -2 1 -20 17 -19 20 -19
28 -4 6 11 4 21 -8 33 -10 9 -15 10 -11 4z m16 -23 c0 -5 -5 -10 -11 -10 -5 0
-7 5 -4 10 3 6 8 10 11 10 2 0 4 -4 4 -10z"/>
<path d="M11160 5216 c0 -2 8 -10 18 -17 15 -13 16 -12 3 4 -13 16 -21 21 -21
13z"/>
</g>
</svg>
